# Blender v2.71 (sub 0) OBJ File: 'Barrel.blend'
# www.blender.org
mtllib Barrel.mtl
o Cylinder
v 0.540186 -1.000000 -0.540186
v 0.725170 0.710687 -0.725170
v 0.763939 -1.000000 0.000000
v 1.025545 0.710687 0.000000
v 0.540186 -1.000000 0.540186
v 0.725170 0.710687 0.725170
v 0.662952 -0.451711 -0.662952
v 0.937556 -0.451711 0.000000
v 0.662952 -0.451711 0.662952
v 0.733506 0.166130 -0.733506
v 1.037334 0.166130 0.000000
v 0.733506 0.166130 0.733506
v 0.571154 1.289313 -0.571154
v 0.807734 1.289313 0.000000
v 0.571154 1.289313 0.571154
v 0.619554 1.107478 0.619554
v 0.876181 1.107478 0.000000
v 0.619554 1.107478 -0.619554
v 0.595546 1.289313 -0.590068
v 0.842230 1.289313 0.000000
v 0.595546 1.289313 0.590068
v 0.646014 1.107478 0.640071
v 0.913601 1.107478 0.000000
v 0.646014 1.107478 -0.640071
v 0.613344 1.116656 -0.613344
v 0.867400 1.116656 0.000000
v 0.613344 1.116656 0.613344
v 0.573494 -0.851243 -0.573494
v 0.811043 -0.851243 0.000000
v 0.573494 -0.851243 0.573494
v 0.556750 -1.000000 -0.554828
v 0.787363 -1.000000 0.000000
v 0.556750 -1.000000 0.554828
v 0.591079 -0.851243 -0.589039
v 0.835912 -0.851243 0.000000
v 0.591079 -0.851243 0.589039
v 0.560791 -0.852480 -0.560791
v 0.793078 -0.852480 0.000000
v 0.560791 -0.852480 0.560791
v 0.683986 -0.267516 -0.683986
v 0.967303 -0.267516 0.000000
v 0.683986 -0.267516 0.683986
v 0.728081 0.520524 -0.728081
v 1.029662 0.520524 0.000000
v 0.728081 0.520524 0.728081
v 0.738516 0.710687 -0.749767
v 1.044419 0.710687 0.000000
v 0.738516 0.710687 0.749767
v 0.675153 -0.451711 -0.685439
v 0.954811 -0.451711 0.000000
v 0.675153 -0.451711 0.685439
v 0.696574 -0.267516 -0.707186
v 0.985104 -0.267516 0.000000
v 0.696574 -0.267516 0.707186
v 0.741480 0.520524 -0.752776
v 1.048612 0.520524 0.000000
v 0.741480 0.520524 0.752776
v 0.000000 -1.000000 -0.763939
v 0.000000 0.710687 -1.025545
v -0.540186 -1.000000 -0.540186
v -0.725170 0.710687 -0.725170
v -0.763939 -1.000000 0.000000
v -1.025545 0.710687 0.000000
v -0.540186 -1.000000 0.540186
v -0.725170 0.710687 0.725170
v 0.000000 -1.000000 0.763939
v 0.000000 0.710687 1.025545
v 0.000000 -0.451711 -0.937556
v -0.662952 -0.451711 -0.662952
v -0.937556 -0.451711 0.000000
v -0.662952 -0.451711 0.662952
v 0.000000 -0.451711 0.937556
v 0.000000 0.166130 -1.037334
v -0.733506 0.166130 -0.733506
v -1.037334 0.166130 0.000000
v -0.733506 0.166130 0.733506
v 0.000000 0.166130 1.037334
v 0.000000 1.289313 -0.807734
v -0.571154 1.289313 -0.571154
v -0.807734 1.289313 0.000000
v -0.571154 1.289313 0.571154
v 0.000000 1.289313 0.807734
v 0.000000 1.107478 -0.876181
v 0.000000 1.107478 0.876181
v -0.619554 1.107478 0.619554
v -0.876181 1.107478 0.000000
v -0.619554 1.107478 -0.619554
v 0.000000 1.289313 -0.834483
v -0.595546 1.289313 -0.590068
v -0.842230 1.289313 0.000000
v -0.595546 1.289313 0.590068
v 0.000000 1.289313 0.834483
v 0.000000 1.107478 -0.905198
v 0.000000 1.107478 0.905198
v -0.646014 1.107478 0.640071
v -0.913601 1.107478 0.000000
v -0.646014 1.107478 -0.640071
v 0.000000 1.116656 -0.867400
v -0.613344 1.116656 -0.613344
v -0.867400 1.116656 0.000000
v -0.613344 1.116656 0.613344
v 0.000000 1.116656 0.867400
v -0.573494 -0.851243 -0.573494
v -0.811043 -0.851243 0.000000
v -0.573494 -0.851243 0.573494
v 0.000000 -0.851243 0.811043
v 0.000000 -0.851243 -0.811043
v 0.000000 -1.000000 -0.784645
v -0.556750 -1.000000 -0.554828
v -0.787363 -1.000000 0.000000
v -0.556750 -1.000000 0.554828
v 0.000000 -1.000000 0.784645
v -0.591079 -0.851243 -0.589039
v -0.835912 -0.851243 0.000000
v -0.591079 -0.851243 0.589039
v 0.000000 -0.851243 0.833027
v 0.000000 -0.851243 -0.833027
v 0.000000 -0.852480 -0.793078
v -0.560791 -0.852480 -0.560791
v -0.793078 -0.852480 0.000000
v -0.560791 -0.852480 0.560791
v 0.000000 -0.852480 0.793078
v 0.000000 -0.267516 -0.967303
v -0.683986 -0.267516 -0.683986
v -0.967303 -0.267516 0.000000
v -0.683986 -0.267516 0.683986
v 0.000000 -0.267516 0.967303
v 0.000000 0.520524 -1.029662
v -0.728081 0.520524 -0.728081
v -1.029662 0.520524 0.000000
v -0.728081 0.520524 0.728081
v 0.000000 0.520524 1.029662
v 0.000000 0.710687 -1.060330
v -0.738516 0.710687 -0.749767
v -1.044419 0.710687 0.000000
v -0.738516 0.710687 0.749767
v 0.000000 0.710687 1.060330
v 0.000000 -0.451711 -0.969357
v -0.675153 -0.451711 -0.685439
v -0.954811 -0.451711 0.000000
v -0.675153 -0.451711 0.685439
v 0.000000 -0.451711 0.969357
v 0.000000 -0.267516 -1.000112
v -0.696574 -0.267516 -0.707186
v -0.985104 -0.267516 0.000000
v -0.696574 -0.267516 0.707186
v 0.000000 -0.267516 1.000112
v 0.000000 0.520524 -1.064587
v -0.741480 0.520524 -0.752776
v -1.048612 0.520524 0.000000
v -0.741480 0.520524 0.752776
v 0.000000 0.520524 1.064587
vt 0.520488 0.891184
vt 0.358640 0.892708
vt 0.358640 0.889153
vt 0.522572 0.885894
vt 0.358639 0.842592
vt 0.521633 0.841364
vt 0.523769 0.846660
vt 0.358639 0.846173
vt 0.033085 0.835384
vt 0.195635 0.841364
vt 0.193499 0.846659
vt 0.029686 0.842888
vt 0.103435 0.534536
vt 0.063523 0.454908
vt 0.206847 0.402779
vt 0.227418 0.489440
vt 0.358309 0.384933
vt 0.358442 0.474003
vt 0.509824 0.402325
vt 0.489512 0.489048
vt 0.653302 0.454026
vt 0.613630 0.533772
vt 0.686059 0.038814
vt 0.700871 0.131858
vt 0.533277 0.146460
vt 0.528011 0.054164
vt 0.369059 0.151290
vt 0.369470 0.058425
vt 0.204782 0.147000
vt 0.210563 0.053544
vt 0.036908 0.134072
vt 0.050734 0.038815
vt 0.490580 0.631218
vt 0.351880 0.635269
vt 0.351781 0.627693
vt 0.489620 0.625371
vt 0.216880 0.634776
vt 0.087438 0.641730
vt 0.085332 0.637404
vt 0.217625 0.629193
vt 0.216888 0.583608
vt 0.350899 0.573952
vt 0.351068 0.582256
vt 0.218086 0.589701
vt 0.488645 0.577654
vt 0.636872 0.574675
vt 0.639445 0.580551
vt 0.487657 0.584089
vt 0.044805 0.343002
vt 0.198087 0.277165
vt 0.222162 0.363998
vt 0.091205 0.420246
vt 0.363387 0.254674
vt 0.363387 0.344783
vt 0.528686 0.277165
vt 0.504611 0.363998
vt 0.681967 0.343002
vt 0.635568 0.420246
vt 0.076192 0.591991
vt 0.632013 0.629372
vt 0.078373 0.586408
vt 0.629920 0.634091
vt 0.216356 0.670744
vt 0.084671 0.673623
vt 0.351100 0.672009
vt 0.489784 0.671556
vt 0.634327 0.673623
vt 0.617007 0.803945
vt 0.489157 0.809476
vt 0.488603 0.805115
vt 0.618559 0.799687
vt 0.362992 0.817867
vt 0.233751 0.813812
vt 0.234178 0.809255
vt 0.362904 0.812278
vt 0.233212 0.771772
vt 0.362402 0.770285
vt 0.362456 0.775414
vt 0.233442 0.775956
vt 0.488524 0.769102
vt 0.609569 0.759948
vt 0.611275 0.763282
vt 0.488400 0.773117
vt 0.096344 0.807833
vt 0.102585 0.769071
vt 0.104295 0.765480
vt 0.098133 0.812291
vt 0.103346 0.732995
vt 0.234400 0.738898
vt 0.362848 0.739870
vt 0.488084 0.739373
vt 0.609793 0.732995
vt 0.791743 0.403962
vt 0.785388 0.035311
vt 0.916657 0.087052
vt 0.972891 0.216459
vt 0.921150 0.347728
vt 0.353479 0.935101
vt 0.501727 0.933672
vt 0.503800 0.938416
vt 0.353479 0.938359
vt 0.196779 0.891185
vt 0.033139 0.897616
vt 0.029715 0.890112
vt 0.194695 0.885894
vt 0.504421 0.981972
vt 0.353479 0.982716
vt 0.353479 0.979401
vt 0.506279 0.976941
vt 0.055027 0.919783
vt 0.205219 0.933672
vt 0.203146 0.938416
vt 0.051571 0.926394
vt 0.684128 0.897616
vt 0.687553 0.890111
vt 0.202525 0.981975
vt 0.049668 0.980791
vt 0.046738 0.973460
vt 0.200666 0.976944
vt 0.706586 0.209153
vt 0.536958 0.221918
vt 0.368689 0.226244
vt 0.200741 0.221571
vt 0.032281 0.209887
vt 0.687581 0.842888
vt 0.655361 0.926393
vt 0.660194 0.973456
vt 0.657265 0.980786
vt 0.651906 0.919784
vt 0.684182 0.835384
vt 0.913685 0.483169
vt 0.961104 0.603146
vt 0.909798 0.721512
vt 0.789821 0.768931
vt 0.795319 0.431863
vn 0.323500 0.889200 -0.323500
vn 0.457400 0.889200 0.000000
vn 0.768900 0.639400 0.000000
vn 0.547100 0.638600 -0.541200
vn 0.602500 -0.798100 0.000000
vn 0.426000 -0.798100 -0.426000
vn 0.556600 -0.621900 -0.550800
vn 0.782300 -0.622800 0.000000
vn 0.000000 -0.798100 0.602500
vn 0.426000 -0.798100 0.426000
vn 0.556600 -0.621900 0.550800
vn 0.000000 -0.620900 0.783800
vn 0.000000 0.705800 -0.708400
vn 0.000000 -0.878400 -0.477800
vn 0.337800 -0.878400 -0.337800
vn 0.500900 0.705800 -0.500900
vn 0.477800 -0.878400 0.000000
vn 0.708400 0.705800 0.000000
vn 0.337800 -0.878400 0.337800
vn 0.500900 0.705800 0.500900
vn 0.000000 -0.878400 0.477800
vn 0.000000 0.705800 0.708400
vn 0.000000 0.756100 -0.654400
vn 0.000000 -0.067700 -0.997700
vn 0.705500 -0.067700 -0.705500
vn 0.462800 0.756100 -0.462800
vn 0.997700 -0.067700 0.000000
vn 0.654400 0.756100 0.000000
vn 0.705500 -0.067700 0.705500
vn 0.462800 0.756100 0.462800
vn 0.000000 -0.067700 0.997700
vn 0.000000 0.756100 0.654400
vn -0.507600 0.696200 0.507600
vn -0.717900 0.696200 0.000000
vn 0.645400 0.763800 0.000000
vn 0.454500 0.763800 -0.458300
vn -0.507600 0.696200 -0.507600
vn 0.000000 0.696200 -0.717900
vn 0.000000 0.763700 0.645500
vn 0.454500 0.763800 0.458300
vn 0.514600 -0.685900 0.514600
vn 0.727700 -0.685900 0.000000
vn 0.874400 -0.485200 0.000000
vn 0.616200 -0.486300 0.619500
vn 0.514600 -0.685900 -0.514600
vn 0.000000 -0.685900 -0.727700
vn 0.000000 -0.487500 -0.873100
vn 0.616200 -0.486300 -0.619500
vn 0.000000 0.889200 0.457400
vn 0.323500 0.889200 0.323500
vn 0.000000 -0.685900 0.727700
vn 0.000000 0.889200 -0.457400
vn 0.000000 -0.487500 0.873100
vn 0.000000 0.763700 -0.645500
vn 0.000000 0.696200 0.717900
vn -0.611500 0.502000 -0.611500
vn 0.000000 0.502000 -0.864800
vn -0.864800 0.502000 0.000000
vn -0.611500 0.502000 0.611500
vn 0.000000 0.502000 0.864800
vn 0.608000 0.509000 -0.609200
vn 0.000000 0.509400 -0.860500
vn 0.608000 0.509000 0.609200
vn 0.861000 0.508600 0.000000
vn -0.471900 -0.744700 -0.471900
vn -0.667400 -0.744700 0.000000
vn 0.668000 -0.744100 0.000000
vn 0.471700 -0.744100 0.473000
vn -0.471900 -0.744700 0.471900
vn 0.000000 -0.744700 0.667400
vn 0.000000 -0.744100 -0.668000
vn 0.471700 -0.744100 -0.473000
vn 0.000000 0.509400 0.860500
vn 0.000000 -0.744100 0.668000
vn 0.000000 -0.744700 -0.667400
vn 0.000000 -0.555800 -0.831300
vn -0.587800 -0.555800 -0.587800
vn -0.831300 -0.555800 0.000000
vn -0.587800 -0.555800 0.587800
vn 0.000000 -0.555800 0.831300
vn 0.514200 -0.690800 -0.508200
vn 0.722600 -0.691200 0.000000
vn 0.000000 0.637700 0.770200
vn 0.547100 0.638600 0.541200
vn 0.822300 0.569000 0.000000
vn 0.584900 0.567700 -0.579200
vn 0.514200 -0.690800 0.508200
vn 0.000000 -0.690400 0.723400
vn 0.000000 0.637700 -0.770200
vn 0.000000 0.566400 0.824200
vn 0.584900 0.567700 0.579200
vn 0.000000 -0.798100 -0.602500
vn 0.000000 -0.620900 -0.783800
vn 0.000000 -0.690400 -0.723400
vn 0.000000 0.566400 -0.824200
vn -0.323500 0.889200 -0.323500
vn -0.547100 0.638600 -0.541200
vn -0.768900 0.639400 0.000000
vn -0.457400 0.889200 0.000000
vn -0.602500 -0.798100 0.000000
vn -0.782300 -0.622800 0.000000
vn -0.556600 -0.621900 -0.550800
vn -0.426000 -0.798100 -0.426000
vn -0.556600 -0.621900 0.550800
vn -0.426000 -0.798100 0.426000
vn -0.500900 0.705800 -0.500900
vn -0.337800 -0.878400 -0.337800
vn -0.708400 0.705800 0.000000
vn -0.477800 -0.878400 0.000000
vn -0.500900 0.705800 0.500900
vn -0.337800 -0.878400 0.337800
vn -0.462800 0.756100 -0.462800
vn -0.705500 -0.067700 -0.705500
vn -0.654400 0.756100 0.000000
vn -0.997700 -0.067700 0.000000
vn -0.462800 0.756100 0.462800
vn -0.705500 -0.067700 0.705500
vn 0.507600 0.696200 0.507600
vn -0.454500 0.763800 -0.458300
vn -0.645400 0.763800 0.000000
vn 0.717900 0.696200 0.000000
vn 0.507600 0.696200 -0.507600
vn -0.454500 0.763800 0.458300
vn -0.514600 -0.685900 0.514600
vn -0.616200 -0.486300 0.619500
vn -0.874400 -0.485200 0.000000
vn -0.727700 -0.685900 0.000000
vn -0.514600 -0.685900 -0.514600
vn -0.616200 -0.486300 -0.619500
vn -0.323500 0.889200 0.323500
vn 0.611500 0.502000 -0.611500
vn 0.864800 0.502000 0.000000
vn 0.611500 0.502000 0.611500
vn -0.608000 0.509000 -0.609200
vn -0.861000 0.508600 0.000000
vn -0.608000 0.509000 0.609200
vn 0.471900 -0.744700 -0.471900
vn -0.471700 -0.744100 0.473000
vn -0.668000 -0.744100 0.000000
vn 0.667400 -0.744700 0.000000
vn 0.471900 -0.744700 0.471900
vn -0.471700 -0.744100 -0.473000
vn 0.587800 -0.555800 -0.587800
vn 0.831300 -0.555800 0.000000
vn 0.587800 -0.555800 0.587800
vn -0.722600 -0.691200 0.000000
vn -0.514200 -0.690800 -0.508200
vn -0.547100 0.638600 0.541200
vn -0.584900 0.567700 -0.579200
vn -0.822300 0.569000 0.000000
vn -0.514200 -0.690800 0.508200
vn -0.584900 0.567700 0.579200
usemtl None
s 1
f 2/1/1 4/2/2 47/3/3 46/4/4
f 44/5/5 43/6/6 55/7/7 56/8/8
f 132/9/9 45/10/10 57/11/11 152/12/12
f 107/13/13 68/14/14 7/15/15 28/16/16
f 28/16/16 7/15/15 8/17/17 29/18/18
f 29/18/18 8/17/17 9/19/19 30/20/20
f 30/20/20 9/19/19 72/21/21 106/22/22
f 123/23/23 73/24/24 10/25/25 40/26/26
f 40/26/26 10/25/25 11/27/27 41/28/28
f 41/28/28 11/27/27 12/29/29 42/30/30
f 42/30/30 12/29/29 77/31/31 127/32/32
f 13/33/33 14/34/34 20/35/35 19/36/36
f 15/37/37 82/38/38 92/39/39 21/40/40
f 16/41/41 17/42/42 23/43/43 22/44/44
f 18/45/45 83/46/46 93/47/47 24/48/48
f 67/49/49 6/50/50 16/51/41 84/52/51
f 6/50/50 4/53/2 17/54/42 16/51/41
f 4/53/2 2/55/1 18/56/45 17/54/42
f 2/55/1 59/57/52 83/58/46 18/56/45
f 94/59/53 22/44/44 21/40/40 92/39/39
f 22/44/44 23/43/43 20/35/35 21/40/40
f 23/43/43 24/48/48 19/36/36 20/35/35
f 24/48/48 93/47/47 88/60/54 19/36/36
f 17/42/42 18/45/45 24/48/48 23/43/43
f 84/61/51 16/41/41 22/44/44 94/59/53
f 14/34/34 15/37/37 21/40/40 20/35/35
f 78/62/55 13/33/33 19/36/36 88/60/54
f 82/38/38 15/37/37 27/63/56 102/64/57
f 15/37/37 14/34/34 26/65/58 27/63/56
f 14/34/34 13/33/33 25/66/59 26/65/58
f 13/33/33 78/62/55 98/67/60 25/66/59
f 107/68/13 28/69/16 34/70/61 117/71/62
f 29/72/18 30/73/20 36/74/63 35/75/64
f 5/76/65 3/77/66 32/78/67 33/79/68
f 1/80/69 58/81/70 108/82/71 31/83/72
f 108/82/71 117/71/62 34/70/61 31/83/72
f 31/83/72 34/70/61 35/75/64 32/78/67
f 32/78/67 35/75/64 36/74/63 33/79/68
f 33/79/68 36/74/63 116/84/73 112/85/74
f 66/86/75 5/76/65 33/79/68 112/85/74
f 3/77/66 1/80/69 31/83/72 32/78/67
f 30/73/20 106/87/22 116/84/73 36/74/63
f 28/69/16 29/72/18 35/75/64 34/70/61
f 5/76/65 66/86/75 122/88/76 39/89/77
f 3/77/66 5/76/65 39/89/77 38/90/78
f 1/80/69 3/77/66 38/90/78 37/91/79
f 58/81/70 1/80/69 37/91/79 118/92/80
f 98/93/60 102/94/57 27/95/56 26/96/58 25/97/59
f 8/98/17 7/99/15 49/100/81 50/101/82
f 6/102/50 67/103/49 137/104/83 48/105/84
f 40/106/26 41/107/28 53/108/85 52/109/86
f 72/110/21 9/111/19 51/112/87 142/113/88
f 59/114/52 2/1/1 46/4/4 133/115/89
f 42/116/30 127/117/32 147/118/90 54/119/91
f 73/24/24 128/120/92 43/121/6 10/25/25
f 10/25/25 43/121/6 44/122/5 11/27/27
f 11/27/27 44/122/5 45/123/10 12/29/29
f 12/29/29 45/123/10 132/124/9 77/31/31
f 148/125/93 133/115/89 46/4/4 55/7/7
f 55/7/7 46/4/4 47/3/3 56/8/8
f 56/8/8 47/3/3 48/105/84 57/11/11
f 57/11/11 48/105/84 137/104/83 152/12/12
f 138/126/94 143/127/95 52/109/86 49/100/81
f 49/100/81 52/109/86 53/108/85 50/101/82
f 50/101/82 53/108/85 54/119/91 51/112/87
f 51/112/87 54/119/91 147/118/90 142/113/88
f 41/107/28 42/116/30 54/119/91 53/108/85
f 9/111/19 8/98/17 50/101/82 51/112/87
f 123/128/23 40/106/26 52/109/86 143/127/95
f 7/99/15 68/129/14 138/126/94 49/100/81
f 4/2/2 6/102/50 48/105/84 47/3/3
f 45/10/10 44/5/5 56/8/8 57/11/11
f 43/6/6 128/130/92 148/125/93 55/7/7
f 37/131/79 38/132/78 39/133/77 122/134/76 118/135/80
f 61/1/96 134/4/97 135/3/98 63/2/99
f 130/5/100 150/8/101 149/7/102 129/6/103
f 132/9/9 152/12/12 151/11/104 131/10/105
f 107/13/13 103/16/106 69/15/107 68/14/14
f 103/16/106 104/18/108 70/17/109 69/15/107
f 104/18/108 105/20/110 71/19/111 70/17/109
f 105/20/110 106/22/22 72/21/21 71/19/111
f 123/23/23 124/26/112 74/25/113 73/24/24
f 124/26/112 125/28/114 75/27/115 74/25/113
f 125/28/114 126/30/116 76/29/117 75/27/115
f 126/30/116 127/32/32 77/31/31 76/29/117
f 79/33/118 89/36/119 90/35/120 80/34/121
f 81/37/122 91/40/123 92/39/39 82/38/38
f 85/41/124 95/44/125 96/43/126 86/42/127
f 87/45/128 97/48/129 93/47/47 83/46/46
f 67/49/49 84/52/51 85/51/124 65/50/130
f 65/50/130 85/51/124 86/54/127 63/53/99
f 63/53/99 86/54/127 87/56/128 61/55/96
f 61/55/96 87/56/128 83/58/46 59/57/52
f 94/59/53 92/39/39 91/40/123 95/44/125
f 95/44/125 91/40/123 90/35/120 96/43/126
f 96/43/126 90/35/120 89/36/119 97/48/129
f 97/48/129 89/36/119 88/60/54 93/47/47
f 86/42/127 96/43/126 97/48/129 87/45/128
f 84/61/51 94/59/53 95/44/125 85/41/124
f 80/34/121 90/35/120 91/40/123 81/37/122
f 78/62/55 88/60/54 89/36/119 79/33/118
f 82/38/38 102/64/57 101/63/131 81/37/122
f 81/37/122 101/63/131 100/65/132 80/34/121
f 80/34/121 100/65/132 99/66/133 79/33/118
f 79/33/118 99/66/133 98/67/60 78/62/55
f 107/68/13 117/71/62 113/70/134 103/69/106
f 104/72/108 114/75/135 115/74/136 105/73/110
f 64/76/137 111/79/138 110/78/139 62/77/140
f 60/80/141 109/83/142 108/82/71 58/81/70
f 108/82/71 109/83/142 113/70/134 117/71/62
f 109/83/142 110/78/139 114/75/135 113/70/134
f 110/78/139 111/79/138 115/74/136 114/75/135
f 111/79/138 112/85/74 116/84/73 115/74/136
f 66/86/75 112/85/74 111/79/138 64/76/137
f 62/77/140 110/78/139 109/83/142 60/80/141
f 105/73/110 115/74/136 116/84/73 106/87/22
f 103/69/106 113/70/134 114/75/135 104/72/108
f 64/76/137 121/89/143 122/88/76 66/86/75
f 62/77/140 120/90/144 121/89/143 64/76/137
f 60/80/141 119/91/145 120/90/144 62/77/140
f 58/81/70 118/92/80 119/91/145 60/80/141
f 98/93/60 99/97/133 100/96/132 101/95/131 102/94/57
f 70/98/109 140/101/146 139/100/147 69/99/107
f 65/102/130 136/105/148 137/104/83 67/103/49
f 124/106/112 144/109/149 145/108/150 125/107/114
f 72/110/21 142/113/88 141/112/151 71/111/111
f 59/114/52 133/115/89 134/4/97 61/1/96
f 126/116/116 146/119/152 147/118/90 127/117/32
f 73/24/24 74/25/113 129/121/103 128/120/92
f 74/25/113 75/27/115 130/122/100 129/121/103
f 75/27/115 76/29/117 131/123/105 130/122/100
f 76/29/117 77/31/31 132/124/9 131/123/105
f 148/125/93 149/7/102 134/4/97 133/115/89
f 149/7/102 150/8/101 135/3/98 134/4/97
f 150/8/101 151/11/104 136/105/148 135/3/98
f 151/11/104 152/12/12 137/104/83 136/105/148
f 138/126/94 139/100/147 144/109/149 143/127/95
f 139/100/147 140/101/146 145/108/150 144/109/149
f 140/101/146 141/112/151 146/119/152 145/108/150
f 141/112/151 142/113/88 147/118/90 146/119/152
f 125/107/114 145/108/150 146/119/152 126/116/116
f 71/111/111 141/112/151 140/101/146 70/98/109
f 123/128/23 143/127/95 144/109/149 124/106/112
f 69/99/107 139/100/147 138/126/94 68/129/14
f 63/2/99 135/3/98 136/105/148 65/102/130
f 131/10/105 151/11/104 150/8/101 130/5/100
f 129/6/103 149/7/102 148/125/93 128/130/92
f 119/131/145 118/135/80 122/134/76 121/133/143 120/132/144
