# Blender v2.71 (sub 0) OBJ File: 'Crate.blend'
# www.blender.org
mtllib Crate.mtl
o Cube
v 0.778351 0.944242 -0.720207
v 0.778350 -0.968005 -0.720207
v 0.778350 -0.968005 0.715036
v 0.778350 0.944242 0.715037
v 0.978838 0.775668 -0.966140
v 0.974605 0.775668 0.974606
v 0.975297 0.775668 -0.720207
v 0.975296 0.775668 0.715037
v 0.778350 0.775668 0.962849
v 0.778351 0.775668 -0.962848
v 0.975297 -0.787098 -0.720207
v 0.975297 -0.787098 0.715036
v 0.778350 -0.787098 0.962848
v 0.978838 -0.787098 -0.966140
v 0.974605 -0.787098 0.974605
v 0.778351 -0.787098 -0.962848
v 1.038808 1.000000 -1.026916
v 1.038807 1.000000 1.026973
v 1.038808 1.000000 -0.739584
v 1.038807 1.000000 0.734331
v 0.793688 1.000000 -0.739584
v 0.793688 1.000000 -1.026916
v 0.793687 1.000000 1.026972
v 0.793687 1.000000 0.734331
v 1.038808 0.775668 -1.026916
v 1.038807 0.775668 1.026972
v 1.038808 0.775668 -0.739584
v 1.038807 0.775668 0.734331
v 0.793687 0.775668 1.026972
v 0.793688 0.775668 -1.026916
v 1.036305 -1.000000 -1.035499
v 1.036305 -1.000000 1.035572
v 1.036305 -1.000000 -0.745763
v 1.036305 -1.000000 0.740482
v 0.792699 -1.000000 -0.745763
v 0.792699 -1.000000 -1.035499
v 0.792699 -1.000000 1.035572
v 0.792699 -1.000000 0.740482
v 1.036305 -0.787098 -0.745763
v 1.036305 -0.787098 0.740482
v 0.792699 -0.787098 1.035572
v 1.036305 -0.787098 -1.035498
v 1.036305 -0.787098 1.035572
v 0.792699 -0.787098 -1.035498
v 1.030228 0.775668 -1.000000
v 1.030227 0.775668 1.000000
v 1.030228 0.775668 -0.720207
v 1.030227 0.775668 0.715037
v 1.030228 -0.787098 -0.720207
v 1.030227 -0.787098 0.715036
v 1.030228 -0.787098 -1.000000
v 1.030227 -0.787098 1.000000
v 1.000000 0.775668 -1.023231
v 0.999999 0.775668 1.023232
v 0.778350 0.775668 1.023232
v 0.778351 0.775668 -1.023231
v 0.778350 -0.787098 1.023231
v 1.000000 -0.787098 -1.023231
v 1.000000 -0.787098 1.023231
v 0.778351 -0.787098 -1.023231
v 0.477357 0.775668 -0.962848
v 0.750764 -0.787098 -1.035498
v 0.512682 -0.787098 -0.962848
v 0.196349 -0.005575 -0.962850
v 0.477357 0.775668 -1.025492
v 0.512682 -0.787098 -1.034632
v 0.196349 -0.005575 -1.027281
v 0.975296 0.516334 0.715037
v 0.975297 -0.550939 0.715036
v 0.975297 0.114734 -0.001462
v 1.029260 -0.550939 0.715036
v 1.029260 0.114734 -0.001462
v 0.975296 -0.176274 -0.002930
v 1.029259 -0.176274 -0.002930
v 1.029260 0.504334 -0.720207
v 1.029260 -0.551665 -0.720207
v 1.029259 -0.041287 0.123969
v 0.975297 0.504334 -0.720207
v 0.975297 -0.551665 -0.720207
v 0.975296 -0.041287 0.123969
v 1.029260 0.516334 0.715037
v 1.029260 -0.787098 0.715036
v 1.029260 -0.787098 -0.720207
v 1.029260 0.775668 0.715037
v 1.029260 0.775668 -0.720207
v 0.975299 -0.035121 -0.134895
v 1.029262 -0.035121 -0.134895
v 0.480206 0.775668 0.962849
v 0.514718 -0.787098 0.962848
v 0.778350 0.775668 1.019832
v 0.778350 -0.787098 1.019832
v 0.194335 -0.003352 1.019833
v 0.514718 -0.787098 1.019832
v 0.480206 0.775668 1.019832
v 0.194335 -0.003352 0.962850
v 0.000000 0.944242 -0.720207
v 0.000000 -0.968005 -0.720207
v 0.000000 -0.968005 0.715036
v 0.000000 0.944242 0.715036
v -0.778351 0.944242 -0.720207
v -0.778350 -0.968005 -0.720207
v -0.778350 -0.968005 0.715036
v -0.778350 0.944242 0.715037
v -0.978838 0.775668 -0.966140
v -0.974605 0.775668 0.974606
v -0.975297 0.775668 -0.720207
v 0.000000 0.775668 0.962848
v 0.000000 0.775668 -0.962848
v -0.975296 0.775668 0.715037
v -0.778350 0.775668 0.962849
v -0.778351 0.775668 -0.962848
v -0.975297 -0.787098 -0.720207
v 0.000000 -0.787098 0.962848
v -0.975297 -0.787098 0.715036
v -0.778350 -0.787098 0.962848
v -0.978838 -0.787098 -0.966140
v -0.974605 -0.787098 0.974605
v 0.000000 -0.787098 -0.962848
v -0.778351 -0.787098 -0.962848
v 0.000000 1.000000 -0.739584
v -1.038808 1.000000 -1.026916
v -1.038807 1.000000 1.026973
v -1.038808 1.000000 -0.739584
v 0.000000 1.000000 -1.026916
v 0.000000 1.000000 1.026972
v -1.038807 1.000000 0.734331
v 0.000000 1.000000 0.734330
v -0.793688 1.000000 -0.739584
v -0.793688 1.000000 -1.026916
v -0.793687 1.000000 1.026972
v -0.793687 1.000000 0.734331
v -1.038808 0.775668 -1.026916
v -1.038807 0.775668 1.026972
v -1.038808 0.775668 -0.739584
v 0.000000 0.775668 1.026972
v 0.000000 0.775668 -1.026916
v -1.038807 0.775668 0.734331
v -0.793687 0.775668 1.026972
v -0.793688 0.775668 -1.026916
v -1.036305 -1.000000 -1.035499
v -1.036305 -1.000000 1.035572
v 0.000000 -1.000000 -0.745763
v -1.036305 -1.000000 -0.745763
v 0.000000 -1.000000 -1.035499
v 0.000000 -1.000000 1.035572
v -1.036305 -1.000000 0.740482
v 0.000000 -1.000000 0.740482
v -0.792699 -1.000000 -0.745763
v -0.792699 -1.000000 -1.035499
v -0.792699 -1.000000 1.035572
v -0.792699 -1.000000 0.740482
v -1.036305 -0.787098 -0.745763
v 0.000000 -0.787098 1.035572
v -1.036305 -0.787098 0.740482
v -0.792699 -0.787098 1.035572
v -1.036305 -0.787098 -1.035498
v -1.036305 -0.787098 1.035572
v 0.000000 -0.787098 -1.035499
v -0.792699 -0.787098 -1.035498
v -1.030228 0.775668 -1.000000
v -1.030227 0.775668 1.000000
v -1.030228 0.775668 -0.720207
v -1.030227 0.775668 0.715037
v -1.030228 -0.787098 -0.720207
v -1.030227 -0.787098 0.715036
v -1.030228 -0.787098 -1.000000
v -1.030227 -0.787098 1.000000
v -1.000000 0.775668 -1.023231
v -0.999999 0.775668 1.023232
v -0.778350 0.775668 1.023232
v -0.778351 0.775668 -1.023231
v -0.778350 -0.787098 1.023231
v -1.000000 -0.787098 -1.023231
v -1.000000 -0.787098 1.023231
v -0.778351 -0.787098 -1.023231
v -0.477357 0.775668 -0.962848
v -0.750764 -0.787098 -1.035498
v -0.512682 -0.787098 -0.962848
v 0.000000 -0.122966 -0.962848
v 0.000000 0.117649 -0.962848
v -0.196349 -0.005575 -0.962850
v -0.477357 0.775668 -1.025492
v -0.512682 -0.787098 -1.034632
v 0.000000 -0.122966 -1.042999
v 0.000000 0.117649 -1.042999
v -0.196349 -0.005575 -1.027281
v -0.975296 0.516334 0.715037
v -0.975297 -0.550939 0.715036
v -0.975297 0.114734 -0.001462
v -1.029260 -0.550939 0.715036
v -1.029260 0.114734 -0.001462
v -0.975296 -0.176274 -0.002930
v -1.029259 -0.176274 -0.002930
v -1.029260 0.504334 -0.720207
v -1.029260 -0.551665 -0.720207
v -1.029259 -0.041287 0.123969
v -0.975297 0.504334 -0.720207
v -0.975297 -0.551665 -0.720207
v -0.975296 -0.041287 0.123969
v -1.029260 0.516334 0.715037
v -1.029260 -0.787098 0.715036
v -1.029260 -0.787098 -0.720207
v -1.029260 0.775668 0.715037
v -1.029260 0.775668 -0.720207
v -0.975299 -0.035121 -0.134895
v -1.029262 -0.035121 -0.134895
v 0.000000 0.119695 0.962848
v -0.480206 0.775668 0.962849
v 0.000000 -0.124874 0.962848
v -0.514718 -0.787098 0.962848
v -0.778350 0.775668 1.019832
v -0.778350 -0.787098 1.019832
v -0.194335 -0.003352 1.019833
v -0.514718 -0.787098 1.019832
v 0.000000 -0.124874 1.019832
v -0.480206 0.775668 1.019832
v 0.000000 0.119695 1.019832
v -0.194335 -0.003352 0.962850
vt 0.750023 0.770210
vt 0.509728 0.770210
vt 0.509728 0.639895
vt 0.750023 0.639895
vt 0.918304 0.978923
vt 0.802271 0.899782
vt 0.805902 0.889807
vt 0.924306 0.970123
vt 0.527529 0.898162
vt 0.400310 0.977234
vt 0.394316 0.967590
vt 0.523918 0.887058
vt 0.971058 0.456777
vt 0.973274 0.633563
vt 0.874154 0.544480
vt 0.455881 0.191827
vt 0.355905 0.089019
vt 0.361314 0.083759
vt 0.462166 0.187851
vt 0.591756 0.369457
vt 0.722071 0.369457
vt 0.722071 0.609752
vt 0.591756 0.609752
vt 0.355909 0.568565
vt 0.453427 0.461964
vt 0.459976 0.466007
vt 0.361507 0.573687
vt 0.501175 0.812791
vt 0.537305 0.796227
vt 0.536374 0.806888
vt 0.504702 0.821558
vt 0.438399 0.012065
vt 0.498372 0.082499
vt 0.529024 0.120625
vt 0.517848 0.128167
vt 0.514634 0.122018
vt 0.428418 0.020564
vt 0.795086 0.796226
vt 0.833733 0.815944
vt 0.831247 0.825820
vt 0.795648 0.807723
vt 0.341612 0.871492
vt 0.419108 0.833344
vt 0.467221 0.809660
vt 0.471947 0.819911
vt 0.346706 0.881841
vt 0.533318 0.158538
vt 0.522324 0.160208
vt 0.867428 0.818023
vt 0.910768 0.845630
vt 0.979501 0.889413
vt 0.973625 0.898638
vt 0.861871 0.827280
vt 0.223237 0.160015
vt 0.353591 0.178650
vt 0.352639 0.185778
vt 0.213514 0.168266
vt 0.280262 0.263843
vt 0.350267 0.257135
vt 0.343494 0.267973
vt 0.292778 0.279989
vt 0.053204 0.457453
vt 0.119391 0.467122
vt 0.110690 0.482388
vt 0.058321 0.467750
vt 0.481487 0.640437
vt 0.481487 0.776546
vt 0.416613 0.729055
vt 0.157068 0.435909
vt 0.166280 0.447408
vt 0.131083 0.475670
vt 0.232331 0.257135
vt 0.272238 0.275728
vt 0.240925 0.269059
vt 0.229100 0.030239
vt 0.220129 0.029833
vt 0.548333 0.459226
vt 0.527727 0.497354
vt 0.518277 0.494377
vt 0.537213 0.460681
vt 0.553213 0.196123
vt 0.541916 0.194409
vt 0.526303 0.529833
vt 0.499347 0.567090
vt 0.446717 0.639831
vt 0.436439 0.632395
vt 0.515980 0.523498
vt 0.792193 0.847087
vt 0.538505 0.843497
vt 0.505026 0.838526
vt 0.846645 0.860878
vt 0.951854 0.932088
vt 0.823824 0.840136
vt 0.366203 0.918825
vt 0.485017 0.852457
vt 0.487955 0.145638
vt 0.398246 0.046898
vt 0.487415 0.507544
vt 0.405164 0.609581
vt 0.503413 0.199995
vt 0.502076 0.456522
vt 0.507244 0.162584
vt 0.504218 0.486656
vt 0.341420 0.503581
vt 0.287107 0.496186
vt 0.896633 0.146146
vt 0.776543 0.248414
vt 0.656337 0.146146
vt 0.277742 0.512945
vt 0.111323 0.697941
vt 0.099901 0.681386
vt 0.352675 0.297452
vt 0.353350 0.464765
vt 0.349306 0.514634
vt 0.035502 0.711698
vt 0.047742 0.696356
vt 0.265224 0.512714
vt 0.217331 0.509592
vt 0.120977 0.688589
vt 0.166282 0.717621
vt 0.342017 0.772994
vt 0.342017 0.632526
vt 0.409962 0.684977
vt 0.832846 0.248879
vt 0.832846 0.510524
vt 0.735067 0.380097
vt 0.156440 0.731371
vt 0.860607 0.508064
vt 0.860607 0.246418
vt 0.958048 0.377264
vt 0.829455 0.558776
vt 0.764764 0.605706
vt 0.764764 0.469601
vt 0.176721 0.447408
vt 0.176723 0.717621
vt 0.329672 0.921454
vt 0.345409 0.961445
vt 0.182131 0.918859
vt 0.017572 0.961369
vt 0.031652 0.925815
vt 0.164419 0.880588
vt 0.201371 0.880661
vt 0.182117 0.930318
vt 0.020118 0.971408
vt 0.027670 0.914496
vt 0.159973 0.867949
vt 0.205663 0.868104
vt 0.333027 0.911639
vt 0.342863 0.971408
vt 0.200774 0.007436
vt 0.374744 0.210755
vt 0.210097 0.208901
vt 0.186493 0.371656
vt 0.166173 0.347201
vt 0.169858 0.202943
vt 0.033157 0.188658
vt 0.014018 0.165755
vt 0.174423 0.166050
vt 0.661259 0.111003
vt 0.781218 0.000346
vt 0.901554 0.111003
vt 0.040712 0.619077
vt 0.049480 0.491072
vt 0.859524 0.586991
vt 0.965380 0.663596
vt 0.874717 0.765032
vt 0.160312 0.211401
vt 0.032354 0.195797
vt 0.157168 0.346992
vt 0.014018 0.157016
vt 0.166677 0.157016
vt 0.217906 0.217919
vt 0.193535 0.372716
vt 0.374661 0.219418
vt 0.193604 0.006206
vt 0.953555 0.148972
vt 0.953555 0.289397
vt 0.885514 0.201857
vt 0.279122 0.703268
vt 0.318979 0.864506
vt 0.311086 0.866502
vt 0.268877 0.703148
vt 0.221875 0.681116
vt 0.268570 0.548093
vt 0.277607 0.551266
vt 0.230912 0.684289
vt 0.207613 0.508637
vt 0.322676 0.539995
vt 0.313157 0.537456
vt 0.271590 0.850753
vt 0.230885 0.722214
vt 0.262580 0.853606
vt 0.221875 0.725067
vn 0.000000 -1.000000 0.000000
vn -0.000000 0.328300 0.944600
vn 0.000000 0.327000 -0.945000
vn -0.964200 0.265200 -0.000000
vn 1.000000 -0.000000 -0.000000
vn -0.000000 -0.624100 0.781300
vn 0.000000 1.000000 0.000000
vn 0.000000 -0.622500 -0.782700
vn -0.912400 -0.409200 0.000000
vn 0.000000 -0.735300 -0.677700
vn -0.000000 -0.000000 1.000000
vn 0.000000 0.749800 -0.661700
vn 0.000000 0.000000 -1.000000
vn -0.415300 -0.000000 0.909700
vn -0.550200 0.000000 -0.835000
vn 0.886400 0.000000 -0.462900
vn 0.937700 -0.000000 0.347600
vn -1.000000 0.000000 0.000000
vn 0.044100 0.009000 -0.999000
vn 0.802000 0.597300 0.000000
vn -0.791600 -0.611100 0.000000
vn -0.809400 0.587200 0.000000
vn 0.801900 -0.597400 0.000000
vn 0.000000 0.757300 0.653000
vn 0.000000 -0.727400 0.686200
vn 0.000000 -0.761600 -0.648000
vn 0.000000 0.735000 -0.678000
vn 0.000000 0.736100 0.676900
vn 0.000000 -0.761300 0.648400
vn 0.800100 -0.599800 0.000000
vn -0.789600 -0.613700 0.000000
vn 0.801900 0.597500 0.000000
vn -0.806900 0.590700 0.000000
vn 0.964200 0.265200 -0.000000
vn 0.912400 -0.409200 0.000000
vn 0.415300 -0.000000 0.909700
vn 0.550200 0.000000 -0.835000
vn -0.886400 0.000000 -0.462900
vn -0.937700 -0.000000 0.347600
vn -0.044100 0.009000 -0.999000
vn -0.802000 0.597300 0.000000
vn 0.791600 -0.611100 0.000000
vn 0.809400 0.587200 0.000000
vn -0.801900 -0.597400 0.000000
vn -0.800100 -0.599800 0.000000
vn 0.789600 -0.613700 0.000000
vn -0.801900 0.597500 0.000000
vn 0.806900 0.590700 0.000000
usemtl Material
s off
f 2/1/1 3/2/1 98/3/1 97/4/1
f 96/5/2 1/6/2 21/7/2 120/8/2
f 4/9/3 99/10/3 127/11/3 24/12/3
f 1/6/4 4/9/4 24/12/4 21/7/4
f 79/13/5 78/14/5 86/15/5
f 2/16/6 97/17/6 142/18/6 35/19/6
f 1/20/7 96/21/7 99/22/7 4/23/7
f 98/24/8 3/25/8 38/26/8 147/27/8
f 6/28/1 8/29/1 28/30/1 26/31/1
f 3/25/9 2/16/9 35/19/9 38/26/9
f 118/32/7 63/33/7 16/34/7 44/35/7 62/36/7 158/37/7
f 7/38/1 5/39/1 25/40/1 27/41/1
f 107/42/1 88/43/1 9/44/1 29/45/1 135/46/1
f 16/34/7 14/47/7 42/48/7 44/35/7
f 10/49/1 61/50/1 108/51/1 136/52/1 30/53/1
f 86/54/10 78/55/10 75/56/10 87/57/10
f 15/58/1 12/59/1 50/60/1 52/61/1
f 11/62/1 14/63/1 51/64/1 49/65/1
f 207/66/11 88/67/11 107/68/11
f 9/44/1 6/28/1 26/31/1 29/45/1
f 14/63/1 16/69/1 60/70/1 58/71/1
f 5/39/1 10/49/1 30/53/1 25/40/1
f 13/72/1 15/58/1 59/73/1 57/74/1
f 79/75/12 86/54/12 87/57/12 76/76/12
f 12/77/7 15/78/7 43/79/7 40/80/7
f 14/47/7 11/81/7 39/82/7 42/48/7
f 13/83/7 89/84/7 113/85/7 153/86/7 41/87/7
f 15/78/7 13/83/7 41/87/7 43/79/7
f 27/41/5 19/88/5 20/89/5 28/30/5
f 28/30/5 20/89/5 18/90/5 26/31/5
f 22/91/7 124/92/7 120/8/7 21/7/7
f 25/40/5 17/93/5 19/88/5 27/41/5
f 24/12/7 127/11/7 125/94/7 23/95/7
f 29/45/11 23/95/11 125/94/11 135/46/11
f 17/93/7 22/91/7 21/7/7 19/88/7
f 20/89/7 24/12/7 23/95/7 18/90/7
f 26/31/11 18/90/11 23/95/11 29/45/11
f 19/88/7 21/7/7 24/12/7 20/89/7
f 22/91/13 30/53/13 136/52/13 124/92/13
f 17/93/13 25/40/13 30/53/13 22/91/13
f 36/96/1 35/19/1 142/18/1 144/97/1
f 38/26/1 37/98/1 145/99/1 147/27/1
f 44/35/13 36/96/13 144/97/13 158/37/13 62/36/13
f 33/100/1 34/101/1 38/26/1 35/19/1
f 31/102/1 33/100/1 35/19/1 36/96/1
f 34/101/1 32/103/1 37/98/1 38/26/1
f 42/48/13 31/102/13 36/96/13 44/35/13
f 33/100/5 39/82/5 40/80/5 34/101/5
f 34/101/5 40/80/5 43/79/5 32/103/5
f 31/102/5 42/48/5 39/82/5 33/100/5
f 37/98/11 41/87/11 153/86/11 145/99/11
f 32/103/11 43/79/11 41/87/11 37/98/11
f 50/60/5 48/104/5 46/105/5 52/61/5
f 11/106/5 73/107/5 12/108/5
f 6/109/14 15/58/14 52/61/14 46/105/14
f 14/63/15 5/110/15 45/111/15 51/64/15
f 12/59/13 69/112/13 68/113/13 8/114/13 48/104/13 50/60/13
f 11/81/7 12/77/7 40/80/7 39/82/7
f 5/110/7 7/115/7 47/116/7 45/111/7
f 8/114/7 6/109/7 46/105/7 48/104/7
f 59/73/11 54/117/11 55/118/11 57/74/11
f 53/119/13 58/71/13 60/70/13 56/120/13
f 179/121/13 63/122/13 118/123/13
f 15/58/16 6/109/16 54/117/16 59/73/16
f 5/110/17 14/63/17 58/71/17 53/119/17
f 13/124/11 9/125/11 95/126/11
f 10/127/7 5/110/7 53/119/7 56/120/7
f 10/128/13 16/129/13 64/130/13
f 108/131/13 61/132/13 180/133/13
f 16/134/18 10/135/18 56/120/18 60/70/18
f 65/136/19 56/137/19 67/138/19 60/139/19 66/140/19 184/141/19 185/142/19
f 64/143/20 16/144/20 60/139/20 67/138/20
f 63/145/21 179/146/21 184/141/21 66/140/21
f 180/147/22 61/148/22 65/136/22 185/142/22
f 10/149/23 64/143/23 67/138/23 56/137/23
f 8/29/1 7/38/1 27/41/1 28/30/1
f 83/150/5 76/76/5 87/57/5 75/56/5 85/151/5 72/152/5 84/153/5 81/154/5 77/155/5 71/156/5 82/157/5 74/158/5
f 8/159/5 70/160/5 7/161/5
f 51/64/5 45/111/5 47/116/5 49/65/5
f 7/115/11 78/162/11 79/163/11 11/62/11 49/65/11 47/116/11
f 69/164/5 80/165/5 68/166/5
f 80/167/24 69/168/24 71/156/24 77/155/24
f 68/169/25 80/167/25 77/155/25 81/154/25
f 12/170/26 73/171/26 74/158/26 82/157/26
f 70/172/27 8/173/27 84/153/27 72/152/27
f 7/174/28 70/172/28 72/152/28 85/151/28
f 73/171/29 11/175/29 83/150/29 74/158/29
f 89/176/11 209/177/11 113/178/11
f 95/179/30 9/180/30 90/181/30 92/182/30
f 209/183/31 89/184/31 93/185/31 215/186/31
f 9/187/18 13/72/18 57/74/18 55/118/18
f 13/188/32 95/179/32 92/182/32 91/189/32
f 91/189/11 92/182/11 90/181/11 94/190/11 217/191/11 215/186/11 93/185/11
f 88/192/33 207/193/33 217/191/33 94/190/33
f 101/1/1 97/4/1 98/3/1 102/2/1
f 96/5/2 120/8/2 128/7/2 100/6/2
f 103/9/3 131/12/3 127/11/3 99/10/3
f 100/6/34 128/7/34 131/12/34 103/9/34
f 198/13/18 205/15/18 197/14/18
f 101/16/6 148/19/6 142/18/6 97/17/6
f 100/20/7 103/23/7 99/22/7 96/21/7
f 98/24/8 147/27/8 151/26/8 102/25/8
f 105/28/1 133/31/1 137/30/1 109/29/1
f 102/25/35 151/26/35 148/19/35 101/16/35
f 118/32/7 158/37/7 177/36/7 159/35/7 119/34/7 178/33/7
f 106/38/1 134/41/1 132/40/1 104/39/1
f 107/42/1 135/46/1 138/45/1 110/44/1 208/43/1
f 119/34/7 159/35/7 156/48/7 116/47/7
f 111/49/1 139/53/1 136/52/1 108/51/1 176/50/1
f 205/54/10 206/57/10 194/56/10 197/55/10
f 117/58/1 167/61/1 165/60/1 114/59/1
f 112/62/1 164/65/1 166/64/1 116/63/1
f 207/66/11 107/68/11 208/67/11
f 110/44/1 138/45/1 133/31/1 105/28/1
f 116/63/1 173/71/1 175/70/1 119/69/1
f 104/39/1 132/40/1 139/53/1 111/49/1
f 115/72/1 172/74/1 174/73/1 117/58/1
f 198/75/12 195/76/12 206/57/12 205/54/12
f 114/77/7 154/80/7 157/79/7 117/78/7
f 116/47/7 156/48/7 152/82/7 112/81/7
f 115/83/7 155/87/7 153/86/7 113/85/7 210/84/7
f 117/78/7 157/79/7 155/87/7 115/83/7
f 134/41/18 137/30/18 126/89/18 123/88/18
f 137/30/18 133/31/18 122/90/18 126/89/18
f 129/91/7 128/7/7 120/8/7 124/92/7
f 132/40/18 134/41/18 123/88/18 121/93/18
f 131/12/7 130/95/7 125/94/7 127/11/7
f 138/45/11 135/46/11 125/94/11 130/95/11
f 121/93/7 123/88/7 128/7/7 129/91/7
f 126/89/7 122/90/7 130/95/7 131/12/7
f 133/31/11 138/45/11 130/95/11 122/90/11
f 123/88/7 126/89/7 131/12/7 128/7/7
f 129/91/13 124/92/13 136/52/13 139/53/13
f 121/93/13 129/91/13 139/53/13 132/40/13
f 149/96/1 144/97/1 142/18/1 148/19/1
f 151/26/1 147/27/1 145/99/1 150/98/1
f 159/35/13 177/36/13 158/37/13 144/97/13 149/96/13
f 143/100/1 148/19/1 151/26/1 146/101/1
f 140/102/1 149/96/1 148/19/1 143/100/1
f 146/101/1 151/26/1 150/98/1 141/103/1
f 156/48/13 159/35/13 149/96/13 140/102/13
f 143/100/18 146/101/18 154/80/18 152/82/18
f 146/101/18 141/103/18 157/79/18 154/80/18
f 140/102/18 143/100/18 152/82/18 156/48/18
f 150/98/11 145/99/11 153/86/11 155/87/11
f 141/103/11 150/98/11 155/87/11 157/79/11
f 165/60/18 167/61/18 161/105/18 163/104/18
f 112/106/18 114/108/18 192/107/18
f 105/109/36 161/105/36 167/61/36 117/58/36
f 116/63/37 166/64/37 160/111/37 104/110/37
f 114/59/13 165/60/13 163/104/13 109/114/13 187/113/13 188/112/13
f 112/81/7 152/82/7 154/80/7 114/77/7
f 104/110/7 160/111/7 162/116/7 106/115/7
f 109/114/7 163/104/7 161/105/7 105/109/7
f 174/73/11 172/74/11 170/118/11 169/117/11
f 168/119/13 171/120/13 175/70/13 173/71/13
f 179/121/13 118/123/13 178/122/13
f 117/58/38 174/73/38 169/117/38 105/109/38
f 104/110/39 168/119/39 173/71/39 116/63/39
f 115/124/11 218/126/11 110/125/11
f 111/127/7 171/120/7 168/119/7 104/110/7
f 111/128/13 181/130/13 119/129/13
f 108/131/13 180/133/13 176/132/13
f 119/134/5 175/70/5 171/120/5 111/135/5
f 182/136/40 185/142/40 184/141/40 183/140/40 175/139/40 186/138/40 171/137/40
f 181/143/41 186/138/41 175/139/41 119/144/41
f 178/145/42 183/140/42 184/141/42 179/146/42
f 180/147/43 185/142/43 182/136/43 176/148/43
f 111/149/44 171/137/44 186/138/44 181/143/44
f 109/29/1 137/30/1 134/41/1 106/38/1
f 202/150/18 193/158/18 201/157/18 190/156/18 196/155/18 200/154/18 203/153/18 191/152/18 204/151/18 194/56/18 206/57/18 195/76/18
f 109/159/18 106/161/18 189/160/18
f 166/64/18 164/65/18 162/116/18 160/111/18
f 106/115/11 162/116/11 164/65/11 112/62/11 198/163/11 197/162/11
f 188/164/18 187/166/18 199/165/18
f 199/167/24 196/155/24 190/156/24 188/168/24
f 187/169/25 200/154/25 196/155/25 199/167/25
f 114/170/26 201/157/26 193/158/26 192/171/26
f 189/172/27 191/152/27 203/153/27 109/173/27
f 106/174/28 204/151/28 191/152/28 189/172/28
f 192/171/29 193/158/29 202/150/29 112/175/29
f 210/176/11 113/178/11 209/177/11
f 218/179/45 213/182/45 211/181/45 110/180/45
f 209/183/46 215/186/46 214/185/46 210/184/46
f 110/187/5 170/118/5 172/74/5 115/72/5
f 115/188/47 212/189/47 213/182/47 218/179/47
f 212/189/11 214/185/11 215/186/11 217/191/11 216/190/11 211/181/11 213/182/11
f 208/192/48 216/190/48 217/191/48 207/193/48
