# Blender v2.71 (sub 0) OBJ File: 'Stone1.blend'
# www.blender.org
mtllib Stone1.mtl
o Icosphere
v 0.723600 0.030370 0.525720
v -0.276385 0.030370 0.850640
v -0.585492 0.030370 0.000000
v -0.276385 0.030370 -0.850640
v 0.462424 0.030370 -0.525720
v 0.146799 0.924800 0.706248
v -0.637519 0.924800 0.356000
v -0.463754 0.924800 -0.525720
v 0.276385 0.924800 -0.620571
v 0.706380 0.924800 0.000000
v 0.000000 1.271632 0.000000
vt 0.373836 0.640131
vt 0.604434 0.601693
vt 0.515291 0.813694
vt 0.320817 0.419526
vt 0.155696 0.558434
vt 0.509027 0.367388
vt 0.390688 0.196292
vt 0.686802 0.448242
vt 0.694364 0.239091
vt 0.795780 0.653344
vt 0.179537 0.751402
vt 0.209371 0.234756
vt 0.517516 0.159527
vt 0.883913 0.518588
vt 0.675927 0.786543
vt 0.028018 0.674743
vt 0.267998 0.072299
vt 0.668574 0.072299
vt 0.959580 0.669449
vt 0.625211 0.943125
vn 0.963200 -0.122100 -0.239300
vn 0.309000 0.007300 0.951000
vn -0.923200 -0.187200 0.335500
vn -0.937400 -0.072600 -0.340600
vn 0.402500 -0.013300 -0.915300
vn 0.732700 0.355300 0.580500
vn -0.386000 0.322200 0.864400
vn -0.980900 0.019900 -0.193300
vn -0.120600 0.316500 -0.940900
vn 0.817000 0.109900 -0.566100
vn 0.416100 0.847400 0.329700
vn -0.207900 0.860200 0.465700
vn -0.518800 0.848700 -0.102300
vn -0.065200 0.858400 -0.508800
vn 0.421500 0.858500 -0.292100
vn 0.000000 -1.000000 0.000000
usemtl None
s off
f 1/1/1 5/2/1 10/3/1
f 2/4/2 1/1/2 6/5/2
f 3/6/3 2/4/3 7/7/3
f 4/8/4 3/6/4 8/9/4
f 5/2/5 4/8/5 9/10/5
f 1/1/6 10/11/6 6/5/6
f 2/4/7 6/12/7 7/7/7
f 3/6/8 7/13/8 8/9/8
f 4/8/9 8/14/9 9/10/9
f 5/2/10 9/15/10 10/3/10
f 6/5/11 10/11/11 11/16/11
f 7/7/12 6/12/12 11/17/12
f 8/9/13 7/13/13 11/18/13
f 9/10/14 8/14/14 11/19/14
f 10/3/15 9/15/15 11/20/15
f 1/1/16 2/4/16 3/6/16 4/8/16 5/2/16
