# Blender v2.71 (sub 0) OBJ File: ''
# www.blender.org
mtllib Stone2.mtl
o Icosphere
v 0.723600 0.021733 0.525720
v -0.276385 0.021733 0.850640
v -0.778143 0.021733 0.000000
v -0.276385 0.021733 -0.850640
v 0.591706 0.021733 -0.353948
v 0.570733 1.214186 0.850640
v -1.033686 0.916163 0.525720
v -0.444523 0.916163 -1.279365
v 0.453354 1.428407 -0.850640
v 1.067982 0.756193 0.000000
v -0.167845 1.596313 0.000000
vt 0.284383 0.507440
vt 0.464576 0.595942
vt 0.308832 0.693876
vt 0.364853 0.336290
vt 0.099205 0.308333
vt 0.545355 0.296481
vt 0.391038 0.110774
vt 0.653220 0.484202
vt 0.867675 0.432742
vt 0.696044 0.828954
vt 0.099205 0.702522
vt 0.641869 0.083050
vt 0.826210 0.621000
vt 0.418450 0.907536
vt 0.180835 0.956275
vt 0.137787 0.059350
vt 0.907789 0.111863
vt 0.904573 0.934739
vn 0.859200 -0.495100 -0.128800
vn 0.301800 -0.214400 0.928900
vn -0.756400 -0.478300 0.446200
vn -0.798200 -0.375700 -0.470800
vn 0.480900 -0.249500 -0.840500
vn 0.855500 -0.031200 0.516900
vn -0.224300 0.159300 0.961400
vn -0.946900 -0.088900 -0.309100
vn 0.538900 -0.279600 -0.794600
vn 0.735800 -0.160000 -0.658100
vn 0.558400 0.821400 -0.115800
vn -0.260500 0.775800 0.574700
vn -0.682200 0.696400 -0.222700
vn -0.306000 0.866500 -0.394500
vn 0.545800 0.802800 0.240100
vn 0.000000 -1.000000 0.000000
usemtl None
s off
f 1/1/1 5/2/1 10/3/1
f 2/4/2 1/1/2 6/5/2
f 3/6/3 2/4/3 7/7/3
f 4/8/4 3/6/4 8/9/4
f 5/2/5 4/8/5 9/10/5
f 1/1/6 10/3/6 6/11/6
f 2/4/7 6/5/7 7/7/7
f 3/6/8 7/12/8 8/9/8
f 4/8/9 8/13/9 9/10/9
f 5/2/10 9/14/10 10/3/10
f 6/11/11 10/3/11 11/15/11
f 7/7/12 6/5/12 11/16/12
f 8/9/13 7/12/13 11/17/13
f 9/10/14 8/13/14 11/18/14
f 10/3/15 9/14/15 11/15/15
f 1/1/16 2/4/16 3/6/16 4/8/16 5/2/16
