# Blender v2.69 (sub 0) OBJ File: 'SecondKnight10_UVmapped.blend'
# www.blender.org
mtllib SwordOrigin.mtl
o Cube.000
v 0.143173 -0.209096 0.001143
v 0.168787 2.178219 0.001143
v 0.062412 2.285415 0.001143
v 0.082969 2.450937 0.001143
v 0.167762 2.523577 0.001143
v 0.364299 2.558555 0.000856
v 0.081550 -0.137207 -0.013549
v 0.041485 2.450937 -0.005929
v 0.031206 2.285415 -0.002424
v 0.081550 -0.137207 0.015836
v 0.084394 2.178219 -0.013549
v 0.084394 2.178219 0.015836
v 0.083881 2.523577 0.022671
v 0.031206 2.285415 0.004711
v 0.041485 2.450937 0.008215
v 0.031103 2.289735 -0.002619
v 0.081137 -0.119857 -0.013623
v 0.041225 2.461899 -0.010336
v 0.054412 3.333542 -0.027683
v 0.055235 3.334358 0.025338
v 0.051462 3.205383 0.021603
v 0.050835 3.206003 -0.023631
v 0.059337 2.593532 -0.033266
v 0.059931 2.593532 0.029988
v 0.029923 3.206342 0.032628
v 0.052266 3.202256 -0.001189
v 0.029713 3.206342 -0.032266
v 0.029942 3.333101 0.038077
v 0.056679 3.338609 -0.001458
v 0.029696 3.333101 -0.037715
v 0.076997 3.257785 -0.053270
v 0.080395 3.257100 0.050240
v 0.029819 3.343784 0.000181
v 0.029587 3.258126 -0.071176
v 0.092011 3.251562 -0.004073
v 0.030050 3.258126 0.071538
v 0.019787 3.205227 0.036573
v 0.052137 3.202992 0.010603
v 0.040378 3.205353 -0.028314
v 0.018287 3.329375 0.042016
v 0.056404 3.337587 0.012595
v 0.042222 3.334398 -0.033287
v 0.061774 3.217088 -0.036024
v 0.063148 3.215874 0.033170
v 0.040767 3.204936 0.027540
v 0.051804 3.203339 -0.012885
v 0.019603 3.208764 -0.035271
v 0.042710 3.334951 0.032392
v 0.055951 3.337109 -0.015350
v 0.018043 3.330013 -0.040684
v 0.068338 3.314539 -0.043460
v 0.070412 3.315971 0.040360
v 0.029750 3.340604 -0.021065
v 0.029887 3.340604 0.021427
v 0.015637 3.345031 0.001046
v 0.044001 3.342379 -0.000685
v 0.029628 3.313797 -0.058573
v 0.029660 3.217732 -0.048822
v 0.054544 3.257066 -0.066540
v 0.009969 3.260085 -0.068706
v 0.078265 3.325157 -0.002776
v 0.066950 3.208945 -0.002085
v 0.086015 3.253343 0.029931
v 0.090411 3.254047 -0.035830
v 0.030009 3.313797 0.058934
v 0.029977 3.217732 0.049184
v 0.010754 3.260419 0.069342
v 0.056217 3.256552 0.066145
v 0.043427 3.340015 -0.018460
v 0.012694 3.309165 -0.059247
v 0.074774 3.321521 -0.026537
v 0.050715 3.317066 0.052395
v 0.016338 3.338695 -0.022859
v 0.016501 3.338210 0.024684
v 0.043703 3.340371 0.017236
v 0.049647 3.316042 -0.053323
v 0.046090 3.215816 -0.043726
v 0.015067 3.221987 -0.051013
v 0.076220 3.322625 0.021849
v 0.066075 3.210715 0.017112
v 0.065239 3.211518 -0.020870
v 0.013247 3.308309 0.060301
v 0.015460 3.222818 0.052272
v 0.046838 3.214972 0.042710
v -0.143173 -0.209096 0.001143
v 0.000000 -0.065318 -0.028242
v 0.000000 -0.482265 0.001143
v 0.000000 -0.065318 0.030528
v -0.168787 2.178219 0.001143
v 0.000000 2.178219 -0.028242
v 0.000000 2.178219 0.030528
v -0.062412 2.285415 0.001143
v 0.000000 2.285415 -0.005992
v 0.000000 2.285415 0.008278
v -0.082969 2.450937 0.001143
v 0.000000 2.450937 -0.013001
v 0.000000 2.450937 0.015288
v -0.167762 2.523577 0.001143
v 0.000000 2.523577 -0.041911
v 0.000000 2.523577 0.044198
v -0.364299 2.558555 0.000856
v 0.000000 2.523577 -0.088738
v 0.000000 2.523577 0.091024
v 0.000000 2.593532 -0.088738
v 0.000000 2.593532 0.091024
v -0.081550 -0.137207 -0.013549
v -0.041485 2.450937 -0.005929
v -0.031206 2.285415 -0.002424
v 0.000000 -0.273792 -0.013549
v -0.081550 -0.137207 0.015836
v 0.000000 -0.273792 0.015836
v -0.084394 2.178219 -0.013549
v -0.084394 2.178219 0.015836
v -0.083881 2.523577 0.022671
v -0.031206 2.285415 0.004711
v -0.041485 2.450937 0.008215
v -0.031103 2.289735 -0.002619
v -0.081137 -0.119857 -0.013623
v -0.041225 2.461899 -0.010336
v 0.000000 2.593532 -0.058001
v 0.000000 2.593532 0.062003
v -0.054412 3.333542 -0.027683
v -0.055235 3.334358 0.025338
v -0.051462 3.205383 0.021603
v -0.050835 3.206003 -0.023631
v 0.000000 3.206130 0.044297
v 0.000000 3.212175 -0.037321
v -0.059337 2.593532 -0.033266
v -0.059931 2.593532 0.029988
v 0.000000 3.329551 0.049302
v 0.000000 3.330721 -0.042311
v -0.029923 3.206342 0.032628
v -0.052266 3.202256 -0.001189
v -0.029713 3.206342 -0.032266
v -0.029942 3.333101 0.038077
v -0.056679 3.338609 -0.001458
v -0.029696 3.333101 -0.037715
v 0.000000 3.346123 0.001820
v 0.000000 3.261971 -0.063857
v 0.000000 3.262404 0.069980
v -0.076997 3.257785 -0.053270
v -0.080395 3.257100 0.050240
v -0.029819 3.343784 0.000181
v -0.029587 3.258126 -0.071176
v -0.092011 3.251562 -0.004073
v -0.030050 3.258126 0.071538
v -0.019787 3.205227 0.036573
v -0.052137 3.202992 0.010603
v -0.040378 3.205353 -0.028314
v -0.018287 3.329375 0.042016
v -0.056404 3.337587 0.012595
v -0.042222 3.334398 -0.033287
v 0.000000 3.339706 -0.023786
v 0.000000 3.227148 -0.051098
v 0.000000 3.302817 0.063949
v -0.061774 3.217088 -0.036024
v -0.063148 3.215874 0.033170
v -0.040767 3.204936 0.027540
v -0.051804 3.203339 -0.012885
v -0.019603 3.208764 -0.035271
v -0.042710 3.334951 0.032392
v -0.055951 3.337109 -0.015350
v -0.018043 3.330013 -0.040684
v 0.000000 3.338773 0.026846
v 0.000000 3.304075 -0.057391
v 0.000000 3.214761 0.057930
v -0.068338 3.314539 -0.043460
v -0.070412 3.315971 0.040360
v -0.029750 3.340604 -0.021065
v -0.029887 3.340604 0.021427
v -0.015637 3.345031 0.001046
v -0.044001 3.342379 -0.000685
v -0.029628 3.313797 -0.058573
v -0.029660 3.217732 -0.048822
v -0.054544 3.257066 -0.066540
v -0.009969 3.260085 -0.068706
v -0.078265 3.325157 -0.002776
v -0.066950 3.208945 -0.002085
v -0.086015 3.253343 0.029931
v -0.090411 3.254047 -0.035830
v -0.030009 3.313797 0.058934
v -0.029977 3.217732 0.049184
v -0.010754 3.260419 0.069342
v -0.056217 3.256552 0.066145
v -0.043427 3.340015 -0.018460
v -0.012694 3.309165 -0.059247
v -0.074774 3.321521 -0.026537
v -0.050715 3.317066 0.052395
v -0.016338 3.338695 -0.022859
v -0.016501 3.338210 0.024684
v -0.043703 3.340371 0.017236
v -0.049647 3.316042 -0.053323
v -0.046090 3.215816 -0.043726
v -0.015067 3.221987 -0.051013
v -0.076220 3.322625 0.021849
v -0.066075 3.210715 0.017112
v -0.065239 3.211518 -0.020870
v -0.013247 3.308309 0.060301
v -0.015460 3.222818 0.052272
v -0.046838 3.214972 0.042710
vt 0.904514 0.230843
vt 0.911956 0.221584
vt 0.919361 0.236520
vt 0.916668 0.239945
vt 0.867185 0.281265
vt 0.874627 0.272077
vt 0.890709 0.276130
vt 0.887948 0.279471
vt 0.891180 0.276497
vt 0.907456 0.291740
vt 0.903747 0.296210
vt 0.934662 0.254244
vt 0.938266 0.249652
vt 0.949905 0.251817
vt 0.942752 0.261460
vt 0.709323 0.234692
vt 0.713636 0.212690
vt 0.719942 0.213763
vt 0.710695 0.258116
vt 0.520211 0.148195
vt 0.533620 0.147934
vt 0.535286 0.268720
vt 0.532898 0.269090
vt 0.530518 0.269056
vt 0.528371 0.268831
vt 0.524184 0.269103
vt 0.911164 0.287271
vt 0.919879 0.293631
vt 0.908794 0.292672
vt 0.626148 0.070777
vt 0.612738 0.071266
vt 0.595341 0.031348
vt 0.618426 0.049725
vt 0.661449 0.020818
vt 0.662011 0.036011
vt 0.639633 0.017598
vt 0.628178 0.072332
vt 0.882060 0.262892
vt 0.893472 0.272789
vt 0.941865 0.245054
vt 0.957080 0.242188
vt 0.922055 0.233096
vt 0.659173 0.007728
vt 0.617252 -0.000833
vt 0.919396 0.212319
vt 0.641559 0.068223
vt 0.904134 0.311613
vt 0.546107 0.147934
vt 0.544293 0.269115
vt 0.542099 0.268315
vt 0.539788 0.268100
vt 0.537461 0.268246
vt 0.558273 0.148210
vt 0.554655 0.270248
vt 0.550876 0.269524
vt 0.548796 0.269051
vt 0.546646 0.269243
vt 0.540704 0.287894
vt 0.540129 0.286398
vt 0.541562 0.286188
vt 0.542713 0.287354
vt 0.549483 0.286514
vt 0.551689 0.286865
vt 0.548865 0.291585
vt 0.545947 0.289873
vt 0.541033 0.283776
vt 0.542869 0.283497
vt 0.532548 0.284016
vt 0.534769 0.283069
vt 0.535644 0.285815
vt 0.534273 0.286772
vt 0.542609 0.292013
vt 0.541506 0.289766
vt 0.544167 0.288639
vt 0.533355 0.290778
vt 0.534919 0.289116
vt 0.538096 0.290021
vt 0.537647 0.292700
vt 0.536134 0.287541
vt 0.537036 0.286192
vt 0.538569 0.286370
vt 0.538382 0.287949
vt 0.544793 0.284659
vt 0.547114 0.285743
vt 0.546911 0.272432
vt 0.549518 0.272598
vt 0.549701 0.279060
vt 0.546868 0.278501
vt 0.551911 0.273182
vt 0.554527 0.274036
vt 0.553871 0.280277
vt 0.552252 0.279716
vt 0.536602 0.283551
vt 0.538828 0.283851
vt 0.536835 0.270986
vt 0.539686 0.270819
vt 0.539376 0.277010
vt 0.536099 0.277038
vt 0.542470 0.271461
vt 0.544469 0.272721
vt 0.544183 0.278187
vt 0.542222 0.277610
vt 0.527457 0.285386
vt 0.529977 0.284835
vt 0.532641 0.287740
vt 0.530827 0.288562
vt 0.526525 0.271382
vt 0.529141 0.271065
vt 0.527897 0.277725
vt 0.525229 0.278143
vt 0.531966 0.271241
vt 0.534591 0.271909
vt 0.534067 0.277481
vt 0.531033 0.277460
vt 0.541257 0.297612
vt 0.542389 0.294458
vt 0.546295 0.295593
vt 0.545183 0.299128
vt 0.536255 0.295590
vt 0.531425 0.293250
vt 0.527684 0.290166
vt 0.535163 0.268647
vt 0.537396 0.267975
vt 0.539759 0.267970
vt 0.525036 0.285286
vt 0.523497 0.278583
vt 0.523567 0.270120
vt 0.524732 0.267490
vt 0.528570 0.267560
vt 0.530594 0.267854
vt 0.532870 0.268106
vt 0.694798 0.209032
vt 0.698038 0.311954
vt 0.675834 0.211403
vt 0.707349 0.211507
vt 0.708685 0.235128
vt 0.710020 0.258749
vt 0.728390 0.218229
vt 0.745466 0.235877
vt 0.745508 0.235983
vt 0.745427 0.236063
vt 0.745312 0.236025
vt 0.745155 0.236172
vn 0.000000 0.095096 0.995453
vn 0.170263 0.086886 0.981536
vn 0.149937 0.075533 0.985778
vn 0.000000 0.078585 0.996887
vn 0.956786 0.290750 0.000000
vn 0.170232 0.086886 -0.981536
vn 0.149937 0.075686 -0.985778
vn 0.868282 0.496048 0.000092
vn 0.144749 -0.029939 -0.989013
vn 0.170660 -0.181066 -0.968535
vn 0.712210 -0.701895 0.008148
vn 0.000000 -0.194403 0.980895
vn 0.179907 -0.174932 0.967986
vn 0.189978 -0.726279 0.660604
vn 0.000000 -0.788067 0.615590
vn 0.166997 -0.985931 0.001312
vn 0.000000 -0.783600 -0.621265
vn -0.000000 -0.596977 -0.802258
vn 0.998169 -0.060396 -0.001099
vn 0.000000 0.830134 0.557512
vn 0.703116 0.592608 0.392956
vn 0.616901 -0.607044 0.500870
vn 0.369304 -0.482101 0.794458
vn 0.287820 -0.469436 0.834712
vn 0.344646 -0.380474 0.858150
vn 0.000000 -0.425153 0.905087
vn 0.000000 -0.209540 -0.977783
vn 0.190649 -0.330119 -0.924467
vn 0.159307 -0.034730 -0.986602
vn 0.942045 -0.335429 0.000000
vn 0.000000 -0.999969 0.000000
vn 0.000000 -0.073855 -0.997253
vn 0.159246 -0.034730 0.986602
vn 0.000000 -0.019196 0.999786
vn 0.000000 -0.073855 0.997253
vn 0.185492 -0.000641 -0.982635
vn 0.000000 0.095096 -0.995453
vn 0.000000 0.078585 -0.996887
vn 0.000000 -0.019196 -0.999786
vn 0.675130 0.592975 -0.438765
vn 0.575427 -0.609302 -0.545518
vn 0.837825 -0.529557 -0.132603
vn 0.843226 -0.537156 -0.019898
vn 0.841517 -0.532151 0.092898
vn 0.000000 0.804071 -0.594501
vn 0.000000 -0.445936 -0.895047
vn 0.112766 -0.454726 -0.883419
vn 0.198950 -0.466018 -0.862087
vn 0.297891 -0.474288 -0.828394
vn 0.171270 0.953398 -0.248329
vn 0.396161 0.886837 -0.237800
vn 0.368877 0.820215 -0.437208
vn 0.190649 0.844569 -0.500290
vn -0.128147 0.426496 -0.895352
vn 0.000000 0.357738 -0.933805
vn 0.000000 0.762474 -0.646992
vn -0.055483 0.785302 -0.616596
vn 0.769005 0.557268 -0.313120
vn 0.608600 0.465224 -0.642750
vn 0.329905 0.523606 0.785485
vn 0.684622 0.469680 0.557329
vn 0.382794 0.832942 0.399548
vn 0.201147 0.852107 0.483139
vn 0.006531 0.941710 -0.336344
vn 0.013215 0.955718 -0.293924
vn 0.001038 0.832270 -0.554338
vn 0.023743 0.938810 0.343516
vn 0.019959 0.955382 0.294595
vn 0.034181 0.999390 -0.001068
vn 0.031007 0.999451 0.010681
vn 0.175848 0.957701 0.227729
vn 0.405072 0.893765 0.192572
vn 0.412976 0.910398 -0.023927
vn 0.175665 0.984375 -0.011048
vn 0.302408 0.515091 -0.801996
vn 0.041871 0.495621 -0.867489
vn 0.255165 -0.687002 -0.680349
vn 0.023347 -0.666402 -0.745201
vn 0.057527 -0.140141 -0.988433
vn 0.349864 -0.147526 -0.925077
vn -0.143468 -0.603076 -0.784631
vn 0.000000 -0.553056 -0.833125
vn 0.000000 -0.094882 -0.995483
vn -0.191809 -0.123386 -0.973632
vn 0.802515 0.541276 0.250862
vn 0.825617 0.564165 -0.006989
vn 0.663320 -0.714682 0.221717
vn 0.675680 -0.737175 -0.003906
vn 0.983947 -0.177496 0.016846
vn 0.955321 -0.170751 0.241127
vn 0.623798 -0.732383 -0.272805
vn 0.504105 -0.652699 -0.565508
vn 0.680288 -0.121982 -0.722709
vn 0.923582 -0.165471 -0.345805
vn 0.066073 0.415662 0.907102
vn 0.059725 0.495621 0.866451
vn 0.007904 0.832392 0.554094
vn 0.021760 0.792779 0.609088
vn 0.166448 -0.527421 0.833094
vn 0.085879 -0.643117 0.760888
vn 0.080203 -0.140110 0.986877
vn 0.096591 -0.101169 0.990143
vn 0.274667 -0.696005 0.663411
vn 0.579119 -0.657460 0.481979
vn 0.778863 -0.122959 0.614978
vn 0.385266 -0.150975 0.910367
vn 0.000000 0.938627 -0.344920
vn 0.000000 0.999695 0.023469
vn 0.000000 0.937223 0.348643
vn 0.000000 0.730613 0.682760
vn 0.000000 0.309275 0.950957
vn 0.000000 -0.042207 0.999084
vn 0.000000 -0.548235 0.836299
vn 0.000000 -0.596408 0.802682
vn 0.000000 0.677236 0.735740
vn 0.000000 0.677511 -0.735496
vn -0.149937 0.075533 0.985778
vn -0.170263 0.086886 0.981536
vn -0.956786 0.290750 0.000000
vn -0.868282 0.496048 0.000092
vn -0.149937 0.075686 -0.985778
vn -0.170232 0.086886 -0.981536
vn -0.712210 -0.701895 0.008148
vn -0.170660 -0.181066 -0.968535
vn -0.144749 -0.029939 -0.989013
vn 0.000000 0.000000 1.000000
vn -0.189978 -0.726279 0.660604
vn -0.179907 -0.174932 0.967986
vn -0.166997 -0.985931 0.001312
vn -0.998169 -0.060396 -0.001099
vn -0.344646 -0.380474 0.858150
vn -0.287820 -0.469436 0.834712
vn -0.369304 -0.482101 0.794458
vn -0.616901 -0.607044 0.500870
vn -0.703116 0.592608 0.392956
vn -0.190649 -0.330119 -0.924467
vn -0.159307 -0.034730 -0.986602
vn -0.942045 -0.335429 0.000000
vn -0.159246 -0.034730 0.986602
vn -0.185492 -0.000641 -0.982635
vn -0.841517 -0.532151 0.092898
vn -0.843226 -0.537156 -0.019898
vn -0.837825 -0.529557 -0.132603
vn -0.575427 -0.609302 -0.545518
vn -0.675130 0.592975 -0.438765
vn -0.297891 -0.474288 -0.828394
vn -0.198950 -0.465987 -0.862087
vn -0.112766 -0.454726 -0.883450
vn -0.171270 0.953398 -0.248329
vn -0.190649 0.844569 -0.500290
vn -0.368877 0.820215 -0.437208
vn -0.396161 0.886837 -0.237800
vn 0.128147 0.426496 -0.895352
vn 0.055483 0.785302 -0.616596
vn -0.769005 0.557268 -0.313120
vn -0.608600 0.465224 -0.642750
vn -0.329905 0.523606 0.785485
vn -0.201147 0.852107 0.483139
vn -0.382794 0.832942 0.399548
vn -0.684622 0.469680 0.557329
vn -0.006531 0.941710 -0.336344
vn -0.001038 0.832270 -0.554338
vn -0.013215 0.955718 -0.293924
vn -0.023743 0.938810 0.343516
vn -0.031007 0.999451 0.010681
vn -0.034181 0.999390 -0.001068
vn -0.019959 0.955382 0.294595
vn -0.175848 0.957701 0.227729
vn -0.175665 0.984375 -0.011048
vn -0.412976 0.910398 -0.023927
vn -0.405072 0.893765 0.192572
vn -0.302408 0.515091 -0.801996
vn -0.041871 0.495621 -0.867489
vn -0.255165 -0.687002 -0.680349
vn -0.349864 -0.147526 -0.925077
vn -0.057527 -0.140141 -0.988433
vn -0.023347 -0.666402 -0.745201
vn 0.143468 -0.603076 -0.784631
vn 0.191809 -0.123386 -0.973632
vn -0.802515 0.541246 0.250862
vn -0.825617 0.564165 -0.006989
vn -0.663320 -0.714682 0.221717
vn -0.955321 -0.170751 0.241127
vn -0.983947 -0.177496 0.016846
vn -0.675680 -0.737175 -0.003906
vn -0.623798 -0.732383 -0.272805
vn -0.923582 -0.165471 -0.345805
vn -0.680288 -0.121982 -0.722709
vn -0.504105 -0.652699 -0.565508
vn -0.066073 0.415662 0.907102
vn -0.021760 0.792779 0.609088
vn -0.007904 0.832392 0.554094
vn -0.059725 0.495621 0.866451
vn -0.166448 -0.527421 0.833094
vn -0.096591 -0.101169 0.990143
vn -0.080203 -0.140110 0.986877
vn -0.085879 -0.643117 0.760888
vn -0.274667 -0.696005 0.663411
vn -0.385266 -0.150975 0.910367
vn -0.778863 -0.122959 0.614978
vn -0.579119 -0.657460 0.482009
usemtl None
s 1
f 91/1/1 12/2/2 14/3/3 94/4/4
f 2/5/5 11/6/6 9/7/7 3/8/8
f 3/8/8 9/7/7 16/9/9 8/10/10 4/11/11
f 97/12/12 15/13/13 13/14/14 100/15/15
f 5/16/16 99/17/17 102/18/18 6/19/19
f 121/20/20 24/21/21 21/22/22 45/23/23 25/24/24 37/25/25 126/26/26
f 8/10/10 96/27/27 99/28/17 18/29/28
f 94/4/4 14/3/3 15/13/13 97/12/12
f 7/30/29 1/31/30 87/32/31 109/33/32
f 10/34/33 88/35/34 111/36/35
f 88/35/34 10/34/33 12/2/2 91/1/1
f 1/31/30 7/30/29 17/37/36 11/6/6 2/5/5
f 11/6/6 90/38/37 93/39/38 9/7/7
f 15/13/13 4/40/11 5/41/16 13/14/14
f 9/7/7 93/39/38 96/27/27 8/10/10 16/9/9
f 14/3/3 3/42/8 4/40/11 15/13/13
f 1/43/30 10/34/33 111/36/35 87/44/31
f 12/2/2 2/45/5 3/42/8 14/3/3
f 7/30/29 86/46/39 90/38/37 11/6/6 17/37/36
f 4/11/11 8/10/10 18/29/28 99/28/17 5/47/16
f 86/46/39 7/30/29 109/33/32
f 10/34/33 1/43/30 2/45/5 12/2/2
f 24/21/21 23/48/40 22/49/41 46/50/42 26/51/43 38/52/44 21/22/22
f 23/48/40 120/53/45 127/54/46 47/55/47 27/56/48 39/57/49 22/49/41
f 69/58/50 49/59/51 19/60/52 42/61/53
f 70/62/54 165/63/55 131/64/56 50/65/57
f 71/66/58 51/67/59 19/60/52 49/59/51
f 72/68/60 52/69/61 20/70/62 48/71/63
f 73/72/64 53/73/65 30/74/66 50/65/57
f 74/75/67 54/76/68 33/77/69 55/78/70
f 75/79/71 41/80/72 29/81/73 56/82/74
f 76/83/75 57/84/76 30/74/66 42/61/53
f 77/85/77 58/86/78 34/87/79 59/88/80
f 78/89/81 154/90/82 139/91/83 60/92/84
f 79/93/85 61/94/86 29/81/73 41/80/72
f 80/95/87 62/96/88 35/97/89 63/98/90
f 81/99/91 43/100/92 31/101/93 64/102/94
f 82/103/95 65/104/96 28/105/97 40/106/98
f 83/107/99 66/108/100 36/109/101 67/110/102
f 84/111/103 44/112/104 32/113/105 68/114/106
f 53/73/65 69/58/50 42/61/53 30/74/66
f 33/77/69 56/82/74 69/58/50 53/73/65
f 56/82/74 29/81/73 49/59/51 69/58/50
f 57/84/76 70/62/54 50/65/57 30/74/66
f 34/87/79 60/92/84 70/62/54 57/84/76
f 60/92/84 139/91/83 165/63/55 70/62/54
f 61/94/86 71/66/58 49/59/51 29/81/73
f 35/97/89 64/102/94 71/66/58 61/94/86
f 64/102/94 31/101/93 51/67/59 71/66/58
f 65/104/96 72/68/60 48/71/63 28/105/97
f 36/109/101 68/114/106 72/68/60 65/104/96
f 68/114/106 32/113/105 52/69/61 72/68/60
f 153/115/107 73/116/64 50/117/57 131/118/56
f 138/119/108 55/78/70 73/116/64 153/115/107
f 55/78/70 33/77/69 53/73/65 73/72/64
f 164/120/109 74/75/67 55/78/70 138/119/108
f 130/121/110 40/106/98 74/75/67 164/120/109
f 40/106/98 28/105/97 54/76/68 74/75/67
f 54/76/68 75/79/71 56/82/74 33/77/69
f 28/105/97 48/71/63 75/79/71 54/76/68
f 48/71/63 20/70/62 41/80/72 75/79/71
f 51/67/59 76/83/75 42/61/53 19/60/52
f 31/101/93 59/88/80 76/83/75 51/67/59
f 59/88/80 34/87/79 57/84/76 76/83/75
f 43/100/92 77/85/77 59/88/80 31/101/93
f 22/49/41 39/57/49 77/85/77 43/100/92
f 39/57/49 27/56/48 58/86/78 77/85/77
f 58/86/78 78/89/81 60/92/84 34/87/79
f 27/56/48 47/55/47 78/89/81 58/86/78
f 47/55/47 127/54/46 154/90/82 78/89/81
f 52/69/61 79/93/85 41/80/72 20/70/62
f 32/113/105 63/98/90 79/93/85 52/69/61
f 63/98/90 35/97/89 61/94/86 79/93/85
f 44/112/104 80/95/87 63/98/90 32/113/105
f 21/122/22 38/123/44 80/95/87 44/112/104
f 38/123/44 26/124/43 62/96/88 80/95/87
f 62/96/88 81/99/91 64/102/94 35/97/89
f 26/124/43 46/50/42 81/99/91 62/96/88
f 46/50/42 22/49/41 43/100/92 81/99/91
f 155/125/111 82/103/95 40/106/98 130/121/110
f 140/126/112 67/110/102 82/103/95 155/125/111
f 67/110/102 36/109/101 65/104/96 82/103/95
f 166/127/113 83/107/99 67/110/102 140/126/112
f 126/128/26 37/129/25 83/107/99 166/127/113
f 37/129/25 25/130/24 66/108/100 83/107/99
f 66/108/100 84/111/103 68/114/106 36/109/101
f 25/130/24 45/131/23 84/111/103 66/108/100
f 45/131/23 21/122/22 44/112/104 84/111/103
f 103/132/114 6/133/19 105/134/115
f 100/135/15 13/136/14 5/137/16 6/133/19 103/132/114
f 6/19/19 102/18/18 104/138/116
f 6/19/19 104/138/116 120/139/45 23/140/40 24/141/21 121/142/20 105/143/115
f 91/1/1 94/4/4 115/3/117 113/2/118
f 89/5/119 92/8/120 108/7/121 112/6/122
f 92/8/120 95/11/123 107/10/124 117/9/125 108/7/121
f 99/17/126 102/18/126 103/132/126 100/135/126
f 97/12/12 100/15/15 114/14/127 116/13/128
f 98/16/129 101/19/130 102/18/18 99/17/17
f 121/20/20 126/26/26 147/25/131 132/24/132 158/23/133 124/22/134 129/21/135
f 107/10/124 119/29/136 99/28/17 96/27/27
f 94/4/4 97/12/12 116/13/128 115/3/117
f 106/30/137 109/33/32 87/32/31 85/31/138
f 110/34/139 111/36/35 88/35/34
f 88/35/34 91/1/1 113/2/118 110/34/139
f 85/31/138 89/5/119 112/6/122 118/37/140 106/30/137
f 112/6/122 108/7/121 93/39/38 90/38/37
f 116/13/128 114/14/127 98/41/129 95/40/123
f 108/7/121 117/9/125 107/10/124 96/27/27 93/39/38
f 115/3/117 116/13/128 95/40/123 92/42/120
f 85/43/138 87/44/31 111/36/35 110/34/139
f 113/2/118 115/3/117 92/42/120 89/45/119
f 106/30/137 118/37/140 112/6/122 90/38/37 86/46/39
f 95/11/123 98/47/129 99/28/17 119/29/136 107/10/124
f 86/46/39 109/33/32 106/30/137
f 110/34/139 113/2/118 89/45/119 85/43/138
f 129/21/135 124/22/134 148/52/141 133/51/142 159/50/143 125/49/144 128/48/145
f 128/48/145 125/49/144 149/57/146 134/56/147 160/55/148 127/54/46 120/53/45
f 185/58/149 152/61/150 122/60/151 162/59/152
f 186/62/153 163/65/154 131/64/56 165/63/55
f 187/66/155 162/59/152 122/60/151 167/67/156
f 188/68/157 161/71/158 123/70/159 168/69/160
f 189/72/161 163/65/154 137/74/162 169/73/163
f 190/75/164 171/78/165 143/77/166 170/76/167
f 191/79/168 172/82/169 136/81/170 151/80/171
f 192/83/172 152/61/150 137/74/162 173/84/173
f 193/85/174 175/88/175 144/87/176 174/86/177
f 194/89/178 176/92/179 139/91/83 154/90/82
f 195/93/180 151/80/171 136/81/170 177/94/181
f 196/95/182 179/98/183 145/97/184 178/96/185
f 197/99/186 180/102/187 141/101/188 156/100/189
f 198/103/190 150/106/191 135/105/192 181/104/193
f 199/107/194 183/110/195 146/109/196 182/108/197
f 200/111/198 184/114/199 142/113/200 157/112/201
f 169/73/163 137/74/162 152/61/150 185/58/149
f 143/77/166 169/73/163 185/58/149 172/82/169
f 172/82/169 185/58/149 162/59/152 136/81/170
f 173/84/173 137/74/162 163/65/154 186/62/153
f 144/87/176 173/84/173 186/62/153 176/92/179
f 176/92/179 186/62/153 165/63/55 139/91/83
f 177/94/181 136/81/170 162/59/152 187/66/155
f 145/97/184 177/94/181 187/66/155 180/102/187
f 180/102/187 187/66/155 167/67/156 141/101/188
f 181/104/193 135/105/192 161/71/158 188/68/157
f 146/109/196 181/104/193 188/68/157 184/114/199
f 184/114/199 188/68/157 168/69/160 142/113/200
f 153/115/107 131/118/56 163/117/154 189/116/161
f 138/119/108 153/115/107 189/116/161 171/78/165
f 171/78/165 189/72/161 169/73/163 143/77/166
f 164/120/109 138/119/108 171/78/165 190/75/164
f 130/121/110 164/120/109 190/75/164 150/106/191
f 150/106/191 190/75/164 170/76/167 135/105/192
f 170/76/167 143/77/166 172/82/169 191/79/168
f 135/105/192 170/76/167 191/79/168 161/71/158
f 161/71/158 191/79/168 151/80/171 123/70/159
f 167/67/156 122/60/151 152/61/150 192/83/172
f 141/101/188 167/67/156 192/83/172 175/88/175
f 175/88/175 192/83/172 173/84/173 144/87/176
f 156/100/189 141/101/188 175/88/175 193/85/174
f 125/49/144 156/100/189 193/85/174 149/57/146
f 149/57/146 193/85/174 174/86/177 134/56/147
f 174/86/177 144/87/176 176/92/179 194/89/178
f 134/56/147 174/86/177 194/89/178 160/55/148
f 160/55/148 194/89/178 154/90/82 127/54/46
f 168/69/160 123/70/159 151/80/171 195/93/180
f 142/113/200 168/69/160 195/93/180 179/98/183
f 179/98/183 195/93/180 177/94/181 145/97/184
f 157/112/201 142/113/200 179/98/183 196/95/182
f 124/122/134 157/112/201 196/95/182 148/123/141
f 148/123/141 196/95/182 178/96/185 133/124/142
f 178/96/185 145/97/184 180/102/187 197/99/186
f 133/124/142 178/96/185 197/99/186 159/50/143
f 159/50/143 197/99/186 156/100/189 125/49/144
f 155/125/111 130/121/110 150/106/191 198/103/190
f 140/126/112 155/125/111 198/103/190 183/110/195
f 183/110/195 198/103/190 181/104/193 146/109/196
f 166/127/113 140/126/112 183/110/195 199/107/194
f 126/128/26 166/127/113 199/107/194 147/129/131
f 147/129/131 199/107/194 182/108/197 132/130/132
f 182/108/197 146/109/196 184/114/199 200/111/198
f 132/130/132 182/108/197 200/111/198 158/131/133
f 158/131/133 200/111/198 157/112/201 124/122/134
f 103/132/114 105/134/115 101/133/130
f 100/135/15 103/132/114 101/133/130 98/137/129 114/136/127
f 101/19/130 104/138/116 102/18/18
f 101/19/130 105/143/115 121/142/20 129/141/135 128/140/145 120/139/45 104/138/116
