# Blender v2.71 (sub 0) OBJ File: 'Level2Platform2.blend'
# www.blender.org
mtllib Level2Platform2.mtl
o Cube
v -0.572046 -3.654577 1.045917
v 1.000000 1.000000 -0.999999
v 0.999999 1.000000 1.000001
v -1.000000 1.000000 1.000000
v -1.000000 1.000000 -1.000000
v 3.217257 0.490038 -3.224626
v 3.217256 0.490038 3.214727
v -2.804296 0.490038 2.750502
v -2.842943 0.490038 -2.724836
v 1.000000 1.000000 0.000001
v 0.000000 1.000000 -1.000000
v -0.000001 1.000000 1.000000
v -1.000000 1.000000 -0.000000
v -0.000000 1.000000 0.000000
v 2.629240 0.490038 0.258111
v -0.002421 0.490038 3.214726
v -3.222097 0.490038 -0.004951
v -0.002419 0.490038 -2.948879
v 3.922161 0.995172 -3.581728
v 4.695864 0.995172 4.355435
v -2.962764 0.995172 2.111686
v -1.895048 0.995172 -2.467592
v 1.000000 1.000000 0.500001
v -0.500000 1.000000 -1.000000
v -0.500000 1.000000 1.000000
v -1.000000 1.000000 -0.500000
v 2.419070 -1.317709 -2.006594
v 1.963393 -3.035336 2.156487
v -0.881417 -1.711209 1.948975
v -1.428725 -0.177463 -2.006595
v 1.000000 1.000000 -0.499999
v 0.500000 1.000000 -1.000000
v 0.499999 1.000000 1.000000
v -1.000000 1.000000 0.500000
v -0.000000 1.000000 0.500000
v 0.000000 1.000000 -0.500000
v 0.500000 1.000000 0.000000
v -0.500000 1.000000 0.000000
v 3.217256 0.490038 1.604889
v 3.217257 0.490038 -1.614788
v 2.227146 -3.084647 0.152061
v 4.128317 0.995172 -0.077369
v -1.612259 0.490038 3.214726
v 2.009745 0.490038 3.988433
v 0.092914 -2.184133 2.581184
v 0.123792 0.995172 4.339960
v -3.222097 0.490038 -1.614789
v -3.222097 0.490038 1.604887
v -1.428726 -0.177463 -0.000000
v -3.194875 0.995172 -0.000001
v -1.612258 0.490038 -3.224627
v 1.607419 0.490038 -3.224627
v -0.123792 0.995172 -4.123322
v -1.023069 -2.185330 -1.243848
v -0.500000 1.000000 0.500000
v 3.194875 0.995172 1.597439
v -1.241534 0.995172 3.519831
v -3.411512 0.995172 -1.411749
v -2.155259 -1.537049 -1.274772
v 0.500000 1.000000 0.500000
v 0.500000 1.000000 -0.500000
v -0.500000 1.000000 -0.500000
v 2.419069 -1.317708 1.003298
v 2.419070 -1.317708 -1.003297
v 3.194876 0.995172 -1.597437
v -0.466777 -0.462524 2.006594
v 1.457121 -1.032647 2.006595
v 1.581962 0.995172 4.572073
v -1.976041 -0.269488 -1.171826
v -0.511293 -0.438200 1.228065
v -3.922159 0.995172 0.730886
v -1.597437 0.995172 -3.194876
v 1.597439 0.995172 -3.194875
v 0.069083 -2.909282 -1.184425
vt 0.383450 0.719704
vt 0.384139 0.758243
vt 0.343061 0.758307
vt 0.344704 0.719048
vt 0.264562 0.446829
vt 0.384051 0.610827
vt 0.351236 0.611269
vt 0.145333 0.521864
vt 0.120608 0.759137
vt 0.246644 0.925776
vt 0.526711 0.935564
vt 0.459593 0.757422
vt 0.499600 0.755049
vt 0.631774 0.823207
vt 0.384139 0.645661
vt 0.383643 0.682218
vt 0.346597 0.681584
vt 0.349240 0.644549
vt 0.455091 0.643310
vt 0.456941 0.680304
vt 0.420281 0.681756
vt 0.419475 0.645093
vt 0.458560 0.718388
vt 0.421470 0.757775
vt 0.420968 0.719396
vt 0.697290 0.320364
vt 0.600889 0.376493
vt 0.535482 0.300928
vt 0.696597 0.253757
vt 0.795105 0.357087
vt 0.804726 0.467936
vt 0.686604 0.429767
vt 0.749986 0.289765
vt 0.512109 0.423871
vt 0.452388 0.606932
vt 0.418340 0.609770
vt 0.406386 0.421276
vt 0.699528 0.119883
vt 0.685277 0.038571
vt 0.741298 0.016323
vt 0.736820 0.147919
vt 0.650864 0.215223
vt 0.516161 0.204809
vt 0.619973 0.102645
vt 0.698727 0.186232
vt 0.112838 0.564775
vt 0.099161 0.641619
vt 0.888499 0.137115
vt 0.941600 0.084150
vt 0.982240 0.121441
vt 0.914180 0.167781
vt 0.779074 0.122261
vt 0.804183 0.012986
vt 0.875159 0.047440
vt 0.835011 0.121456
vt 0.354300 0.951793
vt 0.413490 0.938780
vt 0.686963 0.784804
vt 0.722665 0.815224
vt 0.655329 0.929776
vt 0.684460 0.536038
vt 0.721879 0.511871
vt 0.793329 0.667370
vt 0.694303 0.673090
vt 0.243307 0.402294
vt 0.109361 0.445341
vt 0.365085 0.329851
vt 0.098168 0.823891
vt 0.170402 0.936198
vt 0.012077 0.682671
vt 0.555452 0.972058
vt 0.415761 0.988659
vt 0.983020 0.193054
vt 0.860525 0.207622
vt 0.976752 0.289725
vt 0.846186 0.237424
vt 0.488125 0.603514
vt 0.491634 0.640820
vt 0.493688 0.677748
vt 0.496914 0.716319
vt 0.834103 0.366422
vt 0.905714 0.467936
vt 0.514876 0.383431
vt 0.630641 0.409684
vt 0.598719 0.441683
vt 0.086612 0.527466
vt 0.281763 0.988659
vt 0.958877 0.380561
vt 0.821197 0.268016
vt 0.756096 0.217539
vn 0.000000 1.000000 0.000000
vn 0.002500 1.000000 -0.001200
vn -0.001100 1.000000 0.001800
vn -0.001700 1.000000 -0.001700
vn 0.937700 -0.342600 -0.058400
vn 0.970200 -0.204100 0.130800
vn 0.001600 1.000000 -0.000800
vn 0.085000 -0.475300 0.875700
vn 0.133100 -0.534600 0.834600
vn -0.000200 1.000000 0.001400
vn -0.382600 -0.896200 -0.224700
vn -0.332300 -0.942900 0.020800
vn -0.001900 1.000000 -0.001100
vn -0.484600 0.633200 -0.603500
vn 0.130200 -0.735900 -0.664400
vn 0.669200 -0.706600 -0.230000
vn 0.573800 -0.816400 0.065600
vn 0.001700 1.000000 0.000700
vn -0.503500 0.364500 0.783400
vn -0.167300 -0.777000 0.606900
vn -0.000700 1.000000 0.001600
vn -0.569100 0.654200 -0.498100
vn -0.982500 -0.172200 0.070400
vn -0.002100 1.000000 0.000200
vn -0.933200 -0.355300 -0.054100
vn -0.053100 -0.601700 -0.796900
vn 0.963400 -0.190000 -0.189100
vn 0.914800 -0.403900 0.000000
vn 0.555400 -0.829600 -0.056500
vn 0.842100 -0.511600 0.170400
vn 0.002400 1.000000 0.000700
vn -0.578000 -0.518000 0.630600
vn -0.208200 -0.448800 0.869000
vn -0.140700 -0.862900 0.485300
vn 0.104200 -0.884500 0.454700
vn 0.000100 1.000000 0.001300
vn -0.436000 -0.892500 0.115300
vn -0.575500 -0.682400 -0.450700
vn -0.712900 -0.665300 -0.221500
vn -0.877600 -0.029400 0.478400
vn -0.001700 1.000000 0.000900
vn -0.001600 1.000000 -0.001800
vn -0.000800 1.000000 -0.001600
vn -0.137200 -0.749000 -0.648200
vn 0.000700 1.000000 -0.001700
vn -0.000300 1.000000 -0.002300
vn -0.094800 -0.247200 -0.964300
vn -0.191600 -0.455300 -0.869500
vn 0.044800 -0.544300 -0.837700
vn -0.325700 0.577200 0.748900
vn -0.491200 -0.773900 -0.399800
vn -0.442000 -0.792000 -0.421100
vn 0.441700 -0.577900 -0.686200
vn 0.353100 -0.436900 0.827300
vn -0.158800 -0.528200 -0.834100
vn 0.615700 -0.788000 0.000000
vn 0.629100 -0.243000 0.738400
vn -0.864800 -0.118300 0.487900
vn 0.686200 -0.650400 0.325700
vn -0.394700 -0.031000 0.918300
vn -0.645500 -0.587500 -0.488000
vn -0.899300 -0.093000 0.427300
vn -0.802900 -0.018600 0.595900
vn -0.915800 0.039900 -0.399700
vn 0.524300 -0.841500 -0.130500
usemtl Material
s off
f 55/1/1 34/2/1 4/3/1 25/4/1
f 56/5/2 23/6/2 3/7/2 20/8/2
f 57/9/3 25/4/3 4/3/3 21/10/3
f 58/11/4 26/12/4 5/13/4 22/14/4
f 60/15/1 35/16/1 12/17/1 33/18/1
f 61/19/1 36/20/1 14/21/1 37/22/1
f 62/23/1 26/12/1 13/24/1 38/25/1
f 63/26/5 39/27/5 7/28/5 28/29/5
f 64/30/6 40/31/6 15/32/6 41/33/6
f 65/34/7 31/35/7 10/36/7 42/37/7
f 66/38/8 43/39/8 8/40/8 29/41/8
f 67/42/9 44/43/9 16/44/9 45/45/9
f 68/46/10 33/18/10 12/17/10 46/47/10
f 69/48/11 47/49/11 9/50/11 30/51/11
f 70/52/12 48/53/12 17/54/12 49/55/12
f 71/56/13 34/2/13 13/24/13 50/57/13
f 72/58/14 51/59/14 9/60/14 22/14/14
f 73/61/15 52/62/15 18/63/15 53/64/15
f 35/16/1 55/1/1 25/4/1 12/17/1
f 14/21/1 38/25/1 55/1/1 35/16/1
f 38/25/1 13/24/1 34/2/1 55/1/1
f 39/65/16 56/5/16 20/8/16 7/66/16
f 15/67/17 42/37/17 56/5/17 39/65/17
f 42/37/18 10/36/18 23/6/18 56/5/18
f 43/68/19 57/9/19 21/10/19 8/69/19
f 16/70/20 46/47/20 57/9/20 43/68/20
f 46/47/21 12/17/21 25/4/21 57/9/21
f 47/71/22 58/11/22 22/14/22 9/60/22
f 17/72/23 50/57/23 58/11/23 47/71/23
f 50/57/24 13/24/24 26/12/24 58/11/24
f 51/73/25 59/74/25 30/51/25 9/50/25
f 18/75/26 54/76/26 59/74/26 51/73/26
f 23/6/1 60/15/1 33/18/1 3/7/1
f 10/36/1 37/22/1 60/15/1 23/6/1
f 37/22/1 14/21/1 35/16/1 60/15/1
f 31/35/1 61/19/1 37/22/1 10/36/1
f 2/77/1 32/78/1 61/19/1 31/35/1
f 32/78/1 11/79/1 36/20/1 61/19/1
f 36/20/1 62/23/1 38/25/1 14/21/1
f 11/79/1 24/80/1 62/23/1 36/20/1
f 24/80/1 5/13/1 26/12/1 62/23/1
f 41/33/27 15/32/27 39/27/27 63/26/27
f 27/81/28 6/82/28 40/31/28 64/30/28
f 40/83/29 65/34/29 42/37/29 15/67/29
f 6/84/30 19/85/30 65/34/30 40/83/30
f 19/85/31 2/77/31 31/35/31 65/34/31
f 45/45/32 16/44/32 43/39/32 66/38/32
f 28/29/33 7/28/33 44/43/33 67/42/33
f 44/86/34 68/46/34 46/47/34 16/70/34
f 7/66/35 20/8/35 68/46/35 44/86/35
f 20/8/36 3/7/36 33/18/36 68/46/36
f 49/55/37 17/54/37 47/49/37 69/48/37
f 29/41/38 8/40/38 48/53/38 70/52/38
f 48/87/39 71/56/39 50/57/39 17/72/39
f 8/69/40 21/10/40 71/56/40 48/87/40
f 21/10/41 4/3/41 34/2/41 71/56/41
f 24/80/42 72/58/42 22/14/42 5/13/42
f 11/79/43 53/64/43 72/58/43 24/80/43
f 53/64/44 18/63/44 51/59/44 72/58/44
f 32/78/45 73/61/45 53/64/45 11/79/45
f 2/77/46 19/85/46 73/61/46 32/78/46
f 19/85/47 6/84/47 52/62/47 73/61/47
f 52/88/48 74/89/48 54/76/48 18/75/48
f 6/82/49 27/81/49 74/89/49 52/88/49
f 59/74/50 1/90/50 30/51/50
f 74/89/51 1/90/51 54/76/51
f 54/76/52 1/90/52 59/74/52
f 1/90/53 63/26/53 28/29/53
f 1/90/54 41/33/54 63/26/54
f 1/90/55 64/30/55 41/33/55
f 1/90/56 27/81/56 64/30/56
f 1/90/57 66/38/57 29/41/57
f 1/90/58 45/45/58 66/38/58
f 1/90/59 67/42/59 45/45/59
f 1/90/60 28/29/60 67/42/60
f 1/90/61 69/48/61 30/51/61
f 1/90/62 49/55/62 69/48/62
f 1/90/63 70/52/63 49/55/63
f 1/90/64 29/41/64 70/52/64
f 27/81/65 1/90/65 74/89/65
