# Blender v2.71 (sub 0) OBJ File: 'NormalsPractice.blend'
# www.blender.org
mtllib Tile1.mtl
o Cube
v 1.929994 -0.775502 -2.033422
v 1.929994 -0.775502 2.033422
v -1.929994 -0.775502 2.033422
v -1.929993 -0.775502 -2.033423
v 1.929995 0.775502 -2.033421
v 1.929993 0.775502 2.033423
v -1.929995 0.775502 2.033421
v -1.929994 0.775502 -2.033422
v 1.929994 0.000000 -2.033422
v 1.929993 0.000000 2.033422
v -1.929994 0.000000 2.033422
v -1.929993 0.000000 -2.033422
vt 0.501953 0.669495
vt 0.155341 0.669495
vt 0.155341 0.340512
vt 0.501953 0.340512
vt 0.634144 0.669495
vt 0.634144 0.340512
vt 0.980756 0.340512
vt 0.980756 0.669495
vt 0.501953 0.735590
vt 0.501953 0.801685
vt 0.155341 0.801685
vt 0.155341 0.735590
vt 0.089245 0.669495
vt 0.023150 0.669495
vt 0.023150 0.340512
vt 0.089246 0.340512
vt 0.155341 0.274417
vt 0.155341 0.208322
vt 0.501953 0.208322
vt 0.501953 0.274417
vt 0.568049 0.669495
vt 0.568049 0.340512
vn 0.000000 -1.000000 0.000000
vn 0.000000 1.000000 -0.000000
vn 1.000000 0.000000 0.000000
vn -0.000000 -0.000000 1.000000
vn -1.000000 -0.000000 -0.000000
vn 0.000000 0.000000 -1.000000
usemtl Material
s off
f 1/1/1 2/2/1 3/3/1 4/4/1
f 5/5/2 8/6/2 7/7/2 6/8/2
f 9/9/3 5/10/3 6/11/3 10/12/3
f 10/13/4 6/14/4 7/15/4 11/16/4
f 11/17/5 7/18/5 8/19/5 12/20/5
f 9/21/6 1/1/6 4/4/6 12/22/6
f 1/1/3 9/9/3 10/12/3 2/2/3
f 2/2/4 10/13/4 11/16/4 3/3/4
f 3/3/5 11/17/5 12/20/5 4/4/5
f 5/5/6 9/21/6 12/22/6 8/6/6
